<?xml version="1.0" standalone="no"?>
<!DOCTYPE svg PUBLIC "-//W3C//DTD SVG 20010904//EN"
 "http://www.w3.org/TR/2001/REC-SVG-20010904/DTD/svg10.dtd">
<svg version="1.0" xmlns="http://www.w3.org/2000/svg"
 width="512.000000pt" height="512.000000pt" viewBox="0 0 512.000000 512.000000"
 preserveAspectRatio="xMidYMid meet">
<metadata>
Created by potrace 1.11, written by Peter Selinger 2001-2013
</metadata>
<g transform="translate(0.000000,512.000000) scale(0.100000,-0.100000)"
fill="#000000" stroke="none">
<path d="M0 2560 l0 -2560 2560 0 2560 0 0 2560 0 2560 -2560 0 -2560 0 0
-2560z m2510 2199 c0 -16 -4 -29 -10 -29 -5 0 -10 9 -10 20 0 11 -4 20 -10 20
-5 0 -10 -9 -10 -21 0 -25 -22 -20 -26 6 -4 27 1 32 36 33 27 1 30 -2 30 -29z
m94 4 c8 -20 -19 -44 -39 -37 -7 3 -15 -3 -18 -13 -4 -17 -4 -17 -12 1 -5 12
-3 21 6 27 8 5 10 9 5 9 -5 0 -3 7 4 15 17 20 46 19 54 -2z m101 7 c-3 -5 -10
-10 -16 -10 -5 0 -9 5 -9 10 0 6 7 10 16 10 8 0 12 -4 9 -10z m-71 -15 c3 -8
1 -15 -3 -15 -5 0 -11 7 -15 15 -3 8 -1 15 3 15 5 0 11 -7 15 -15z m168 -15
c18 -11 49 -20 68 -20 19 0 42 -5 50 -10 13 -8 12 -11 -5 -24 -11 -9 -31 -15
-45 -16 -29 0 -58 16 -48 26 4 4 -3 15 -16 25 -28 22 -41 25 -30 7 5 -9 2 -9
-9 1 -19 15 -22 31 -7 31 5 0 24 -9 42 -20z m-627 -25 c0 -23 -34 -33 -45 -14
-13 20 1 40 24 37 13 -2 21 -10 21 -23z m535 15 c0 -5 -4 -10 -10 -10 -5 0
-10 5 -10 10 0 6 5 10 10 10 6 0 10 -4 10 -10z m300 -38 c-11 -2 -32 -1 -47 1
-27 4 -27 4 -5 12 12 4 22 13 22 20 0 9 9 6 25 -8 23 -21 23 -22 5 -25z m-390
3 c-14 -17 -50 -17 -52 0 0 6 10 15 23 22 29 15 48 1 29 -22z m-560 6 c-15
-30 -28 -33 -25 -8 3 28 2 27 20 27 12 0 14 -4 5 -19z m384 -3 c12 -20 0 -36
-16 -20 -8 8 -26 3 -70 -19 -62 -31 -148 -52 -173 -43 -8 4 -15 14 -15 24 0
15 7 17 43 13 34 -3 56 3 112 31 75 38 102 41 119 14z m66 -7 c0 -11 -6 -18
-15 -17 -20 3 -28 13 -20 25 11 18 35 12 35 -8z m560 9 c0 -5 -7 -7 -15 -4 -8
4 -15 8 -15 10 0 2 7 4 15 4 8 0 15 -4 15 -10z m-1055 -10 c12 -20 -15 -50
-45 -50 -32 0 -41 25 -18 48 14 14 54 16 63 2z m75 1 c0 -12 -20 -25 -27 -18
-7 7 6 27 18 27 5 0 9 -4 9 -9z m680 -1 c0 -5 -4 -10 -10 -10 -5 0 -10 5 -10
10 0 6 5 10 10 10 6 0 10 -4 10 -10z m-70 -26 c0 -2 -7 -4 -15 -4 -8 0 -15 4
-15 10 0 5 7 7 15 4 8 -4 15 -8 15 -10z m449 2 c9 -11 10 -20 1 -35 -8 -15 -7
-26 1 -39 7 -11 9 -27 6 -36 -8 -20 -46 -21 -52 -1 -3 8 -8 23 -11 33 -22 57
22 118 55 78z m-719 -19 c0 -28 -17 -47 -43 -47 -10 0 -15 -4 -12 -10 11 -19
-22 -10 -40 10 -20 22 -20 22 9 37 15 8 23 7 34 -3 17 -17 32 -9 32 17 0 10 5
19 10 19 6 0 10 -10 10 -23z m160 -12 c0 -18 -5 -25 -20 -25 -15 0 -20 7 -20
25 0 18 5 25 20 25 15 0 20 -7 20 -25z m700 16 c0 -5 -7 -12 -16 -15 -8 -3
-12 -11 -8 -17 4 -8 9 -7 15 2 4 7 11 10 15 6 4 -4 -3 -18 -15 -31 -18 -19
-33 -24 -62 -23 -22 1 -39 5 -39 9 0 4 6 8 13 8 7 0 28 16 47 35 34 35 50 43
50 26z m-360 -26 c0 -14 -4 -25 -10 -25 -11 0 -14 33 -3 43 11 11 13 8 13 -18z
m42 -27 c-15 -15 -21 4 -9 32 l10 25 5 -24 c2 -13 -1 -28 -6 -33z m-455 30
c21 -27 24 -70 7 -89 -34 -38 -86 -16 -86 36 0 48 55 84 79 53z m311 -21 c2
-11 -1 -15 -11 -11 -8 3 -18 1 -21 -4 -10 -16 5 -44 20 -38 8 3 14 2 14 -3 0
-15 -24 -27 -50 -27 -34 1 -50 54 -27 90 14 20 21 23 44 17 15 -4 29 -15 31
-24z m-172 12 c3 -6 15 -8 26 -6 17 5 19 2 14 -18 -3 -13 -2 -27 4 -30 17 -10
11 -26 -8 -23 -11 2 -27 -3 -36 -11 -15 -13 -18 -12 -23 7 -3 12 -12 22 -19
22 -19 0 -18 19 1 26 8 4 15 15 15 25 0 21 15 25 26 8z m688 -4 c-4 -8 -1 -15
5 -15 6 0 11 5 11 11 0 5 5 7 10 4 12 -7 12 -16 2 -33 -7 -10 -15 -10 -36 -3
-23 10 -25 13 -14 31 15 23 30 27 22 5z m-1554 -10 c16 -19 -12 -65 -40 -65
-29 0 -52 28 -40 50 17 31 60 40 80 15z m559 -37 c1 -10 -73 -6 -88 6 -7 5
-20 11 -28 12 -8 2 -18 6 -21 10 -4 4 1 4 10 1 9 -3 19 -1 22 6 3 8 11 4 24
-10 22 -25 42 -32 22 -8 -22 27 0 37 30 13 16 -13 29 -26 29 -30z m-659 -7 c0
-12 -20 -25 -27 -18 -7 7 6 27 18 27 5 0 9 -4 9 -9z m1814 3 c22 -8 20 -37 -3
-58 -23 -21 -50 -18 -65 7 -9 15 -7 22 13 38 25 21 31 22 55 13z m-1702 -26
c-7 -7 -12 -8 -12 -2 0 14 12 26 19 19 2 -3 -1 -11 -7 -17z m-152 4 c0 -8 -43
-32 -55 -32 -14 0 -2 18 18 28 28 13 37 14 37 4z m588 -4 c7 -7 12 -23 12 -36
0 -19 -4 -23 -26 -20 -35 4 -53 31 -35 52 16 19 33 20 49 4z m360 0 c-6 -16
-48 -23 -48 -8 0 6 4 9 9 5 5 -3 12 -1 16 5 9 14 27 12 23 -2z m322 -28 c0 -3
-6 -14 -13 -24 -12 -16 -14 -16 -31 3 -10 11 -16 27 -13 36 5 12 11 13 32 3
14 -6 25 -14 25 -18z m434 6 c-3 -9 -10 -13 -15 -10 -5 3 -3 11 4 19 15 16 19
13 11 -9z m-1599 4 c3 -5 -1 -10 -9 -10 -9 0 -16 5 -16 10 0 6 4 10 9 10 6 0
13 -4 16 -10z m1335 -25 c0 -19 -28 -38 -45 -31 -23 9 1 55 26 49 10 -3 19
-11 19 -18z m276 6 c14 13 25 20 23 14 -1 -5 1 -18 5 -27 5 -10 6 -25 2 -33
-6 -17 -46 -21 -46 -5 0 6 5 10 12 10 19 0 -1 14 -22 15 -15 1 -19 -3 -14 -17
4 -13 0 -18 -14 -18 -24 0 -35 25 -22 49 5 10 6 22 2 27 -4 5 5 -2 21 -15 l27
-24 26 24z m239 8 c11 -17 -1 -21 -15 -4 -8 9 -8 15 -2 15 6 0 14 -5 17 -11z
m-1715 -45 c0 -27 -14 -38 -38 -29 -14 5 -14 7 -2 16 13 8 12 11 -3 23 -18 14
-18 15 0 24 23 13 43 -2 43 -34z m1281 19 c-11 -16 -27 -22 -50 -23 l-34 0 22
24 c13 14 32 23 50 22 27 -1 28 -2 12 -23z m363 12 c-7 -16 -24 -21 -24 -6 0
8 7 13 27 20 1 1 0 -6 -3 -14z m-1965 -21 c-15 -18 -22 -13 -13 10 3 9 10 13
16 10 5 -3 4 -12 -3 -20z m81 13 c0 -24 -26 -51 -44 -44 -22 9 -20 28 4 34 11
3 20 9 20 14 0 5 5 9 10 9 6 0 10 -6 10 -13z m136 -9 c-3 -24 -20 -28 -22 -5
-1 17 5 27 17 27 5 0 7 -10 5 -22z m1802 4 c2 -7 -2 -10 -12 -6 -9 3 -16 11
-16 16 0 13 23 5 28 -10z m55 -43 c-14 -21 -32 -39 -39 -39 -27 0 -24 21 7 60
24 30 35 37 45 29 11 -9 8 -19 -13 -50z m-163 31 c0 -5 -7 -10 -16 -10 -8 0
-12 5 -9 10 3 6 10 10 16 10 5 0 9 -4 9 -10z m224 -29 c15 -16 15 -19 1 -31
-8 -7 -15 -19 -15 -26 0 -19 -34 -18 -50 1 -10 12 -8 20 12 44 28 36 30 36 52
12z m-2185 -20 c22 -22 37 -97 27 -137 -4 -15 -22 -42 -41 -61 -38 -38 -85
-44 -136 -18 -53 28 -65 107 -26 166 42 63 136 90 176 50z m1771 11 c0 -9 92
-8 109 2 15 9 16 8 26 -23 6 -21 5 -23 -11 -17 -38 15 -81 18 -117 8 -35 -10
-37 -9 -37 14 0 15 6 24 15 24 8 0 15 -3 15 -8z m247 -17 c-16 -14 -25 -30
-22 -35 3 -6 2 -10 -4 -10 -5 0 -16 14 -25 31 -13 27 -13 30 -1 25 8 -3 25 -1
37 4 39 15 44 10 15 -15z m-1738 -11 c27 -34 26 -40 -4 -69 -30 -31 -58 -32
-85 -3 -24 26 -25 46 -4 76 22 31 67 29 93 -4z m-189 -15 c-15 -27 -38 -31
-35 -6 3 28 2 26 24 24 15 -1 17 -5 11 -18z m2165 1 c0 -9 -9 -15 -23 -14 -15
0 -21 -4 -18 -13 3 -7 1 -13 -4 -13 -13 0 -13 16 1 41 12 23 44 22 44 -1z
m-2145 -19 c0 -12 -20 -25 -27 -18 -7 7 6 27 18 27 5 0 9 -4 9 -9z m40 -18 c0
-31 -15 -61 -26 -51 -9 10 5 78 16 78 6 0 10 -12 10 -27z m193 -12 c4 -18 6
-36 2 -39 -9 -9 -22 11 -30 47 -10 45 16 38 28 -8z m1517 15 c0 -7 -7 -19 -16
-27 -18 -15 -47 -2 -52 25 -3 12 4 16 32 16 24 0 36 -5 36 -14z m220 4 c-8 -5
-11 -10 -5 -10 5 0 4 -5 -2 -11 -12 -12 -53 -3 -53 11 0 8 25 16 60 18 13 2
13 1 0 -8z m190 -20 c-19 -12 -40 -13 -40 0 0 5 8 13 18 19 22 13 44 -5 22
-19z m-1859 -3 c-1 -4 -1 -14 -1 -22 0 -20 -29 -19 -37 1 -3 9 0 20 8 25 15
10 31 8 30 -4z m1851 -61 c15 -21 28 -44 28 -49 0 -20 -45 -77 -65 -83 -11 -3
-35 -13 -54 -21 -31 -14 -37 -14 -68 1 -18 9 -40 16 -47 16 -8 0 -28 19 -45
42 -29 40 -32 41 -37 20 -4 -15 -14 -22 -30 -22 -12 0 -26 -4 -29 -10 -7 -11
-45 -14 -45 -4 0 4 7 12 16 19 13 9 14 16 5 33 -6 11 -11 35 -11 53 0 31 1 31
19 15 11 -10 25 -31 31 -47 7 -16 17 -29 22 -29 13 0 59 51 69 77 5 13 20 25
36 29 15 3 39 9 52 13 13 4 46 2 74 -3 41 -9 55 -18 79 -50z m-272 50 c0 -2
-7 -6 -15 -10 -8 -3 -15 -1 -15 4 0 6 7 10 15 10 8 0 15 -2 15 -4z m350 -21
c0 -14 5 -25 11 -25 5 0 8 -4 5 -9 -3 -5 -17 -8 -31 -8 -14 0 -28 3 -31 8 -3
5 2 9 10 9 10 0 16 9 16 25 0 14 5 25 10 25 6 0 10 -11 10 -25z m-2245 5 c3
-5 1 -10 -5 -10 -7 0 -10 -6 -7 -12 2 -7 10 -12 16 -10 18 3 13 -25 -5 -32
-25 -10 -52 20 -46 49 4 25 35 35 47 15z m-316 -54 c-6 -4 -72 -36 -75 -36 -1
0 -2 14 -2 30 1 35 5 37 25 13 13 -17 14 -17 12 2 -3 36 1 39 22 16 12 -12 19
-24 18 -25z m512 15 c23 -19 24 -19 5 -40 -14 -16 -31 -21 -66 -21 -49 0 -70
13 -70 42 0 39 90 52 131 19z m1567 -9 c4 -28 -24 -40 -45 -19 -21 21 -9 49
19 45 15 -2 24 -11 26 -26z m-1700 -47 c16 -34 15 -38 -3 -31 -9 3 -20 -3 -27
-14 -17 -26 -22 -25 -36 5 -16 36 -15 41 10 42 13 1 24 7 26 13 6 17 18 11 30
-15z m-388 5 c0 -5 -7 -10 -15 -10 -8 0 -15 5 -15 10 0 6 7 10 15 10 8 0 15
-4 15 -10z m286 -1 c10 -17 -13 -36 -27 -22 -12 12 -4 33 11 33 5 0 12 -5 16
-11z m-401 -20 c8 -24 0 -34 -32 -43 -18 -6 -24 -2 -29 18 -8 32 1 46 31 46
15 0 26 -7 30 -21z m422 -55 c51 -32 38 -105 -24 -130 -70 -30 -153 9 -153 70
0 72 104 107 177 60z m-230 -16 c-3 -7 -5 -2 -5 12 0 14 2 19 5 13 2 -7 2 -19
0 -25z m-292 2 c4 -11 11 -18 16 -15 15 10 10 -7 -8 -27 -17 -19 -39 -25 -28
-8 3 5 -3 15 -14 22 -19 11 -19 14 -4 30 21 23 30 23 38 -2z m201 -26 c12 -29
19 -34 49 -34 46 0 53 -16 20 -50 -24 -25 -26 -33 -20 -69 8 -47 -3 -52 -49
-22 -28 19 -29 19 -62 -1 -43 -25 -54 -18 -43 29 7 34 5 41 -22 69 -33 35 -30
44 17 44 29 0 36 5 54 40 23 45 35 44 56 -6z m51 40 c-3 -3 -12 -4 -19 -1 -8
3 -5 6 6 6 11 1 17 -2 13 -5z m2142 -39 c0 -5 -6 -1 -14 9 -8 11 -15 24 -15
30 0 5 7 1 15 -10 8 -10 14 -23 14 -29z m26 24 c11 -17 -1 -21 -15 -4 -8 9 -8
15 -2 15 6 0 14 -5 17 -11z m646 -36 c13 -34 -4 -54 -21 -23 -11 20 -8 50 5
50 3 0 10 -12 16 -27z m-76 7 c-3 -5 -10 -10 -16 -10 -5 0 -9 5 -9 10 0 6 7
10 16 10 8 0 12 -4 9 -10z m-295 -22 c0 -13 -23 -5 -28 10 -2 7 2 10 12 6 9
-3 16 -11 16 -16z m-32 0 c7 -7 8 -17 1 -30 -12 -22 -32 -23 -49 -3 -23 28 21
60 48 33z m-123 -8 c3 -5 1 -10 -4 -10 -6 0 -11 5 -11 10 0 6 2 10 4 10 3 0 8
-4 11 -10z m-43 -22 c-7 -7 -12 -8 -12 -2 0 6 3 14 7 17 3 4 9 5 12 2 2 -3 -1
-11 -7 -17z m498 11 c0 -6 -4 -7 -10 -4 -5 3 -10 1 -10 -4 0 -6 -4 -11 -10
-11 -19 0 -10 26 10 27 11 1 20 -3 20 -8z m-63 -15 c8 -21 -13 -42 -28 -27
-13 13 -5 43 11 43 6 0 13 -7 17 -16z m-467 -4 c0 -5 -2 -10 -4 -10 -3 0 -8 5
-11 10 -3 6 -1 10 4 10 6 0 11 -4 11 -10z m240 -3 c0 -8 -9 -22 -20 -32 -16
-14 -23 -16 -32 -7 -9 9 -7 16 7 32 21 23 45 26 45 7z m-2761 -6 c9 -6 3 -10
-20 -14 -39 -5 -57 1 -38 14 18 11 40 11 58 0z m2687 -28 c-4 -4 -11 -1 -16 7
-16 25 -11 35 7 17 9 -9 13 -20 9 -24z m144 18 c2 -1 -1 -6 -7 -12 -13 -13
-47 -4 -39 10 4 5 14 8 24 6 9 -2 19 -4 22 -4z m334 -15 c6 2 16 -6 22 -19 9
-20 7 -25 -11 -34 -32 -14 -55 5 -48 41 4 18 9 24 16 17 5 -5 15 -8 21 -5z
m-3104 -22 c0 -16 -16 -19 -25 -4 -8 13 4 32 16 25 5 -4 9 -13 9 -21z m2881
10 c11 -14 10 -18 -6 -30 -10 -8 -24 -14 -31 -14 -18 0 -37 28 -30 45 7 20 50
19 67 -1z m94 6 c3 -5 2 -10 -4 -10 -5 0 -13 5 -16 10 -3 6 -2 10 4 10 5 0 13
-4 16 -10z m-3067 -38 c-2 -8 2 -17 9 -19 8 -3 11 5 10 23 -1 15 4 29 12 32
10 3 13 -2 9 -21 -3 -15 0 -28 6 -30 6 -3 -1 -10 -16 -17 -33 -16 -49 -10 -68
24 -12 24 -12 29 0 36 18 11 41 -7 38 -28z m483 18 c19 -10 26 -30 12 -30 -5
0 -19 9 -33 20 -26 21 -12 27 21 10z m139 1 c0 -5 -8 -11 -17 -15 -10 -3 -25
-9 -33 -12 -8 -3 -4 4 9 15 25 22 41 27 41 12z m2037 -17 c3 -8 -1 -23 -10
-31 -13 -13 -19 -14 -31 -3 -14 10 -16 10 -16 -5 0 -10 -3 -15 -6 -12 -4 4 -1
20 6 37 14 33 46 41 57 14z m33 -15 c0 -6 -4 -7 -10 -4 -5 3 -10 11 -10 16 0
6 5 7 10 4 6 -3 10 -11 10 -16z m-2750 -4 c16 -19 6 -45 -18 -45 -29 0 -48 26
-32 45 16 19 34 19 50 0z m200 -11 c0 -17 -36 -19 -46 -3 -8 14 14 29 33 22 7
-3 13 -11 13 -19z m2635 16 c3 -5 -1 -10 -10 -10 -9 0 -13 5 -10 10 3 6 8 10
10 10 2 0 7 -4 10 -10z m360 -10 c-3 -5 -13 -10 -21 -10 -8 0 -14 5 -14 10 0
6 9 10 21 10 11 0 17 -4 14 -10z m-2726 -30 c-22 -14 -34 2 -13 17 13 10 20
10 23 2 2 -6 -3 -15 -10 -19z m2591 5 c0 -12 -13 -15 -55 -15 -51 0 -65 7 -48
23 3 4 28 7 55 7 36 0 48 -4 48 -15z m65 -5 c0 -9 -7 -14 -20 -12 -26 5 -29 8
-20 22 10 16 40 8 40 -10z m-2807 -15 c-3 -3 -9 2 -12 12 -6 14 -5 15 5 6 7
-7 10 -15 7 -18z m2425 18 c12 -11 -14 -33 -39 -33 -26 0 -30 10 -12 28 13 13
41 16 51 5z m604 -15 c15 -12 35 -68 24 -68 -42 0 -101 50 -101 85 0 9 62 -5
77 -17z m-2893 -10 c9 -13 14 -18 12 -12 -6 13 18 27 28 17 11 -11 6 -22 -15
-34 -17 -9 -24 -7 -40 10 -20 21 -25 41 -10 41 5 0 16 -10 25 -22z m146 -9 c0
-26 -28 -36 -46 -17 -14 13 -14 17 1 31 19 20 45 12 45 -14z m2310 12 c0 -26
-26 -45 -47 -36 -17 8 -17 8 -1 12 9 2 20 13 23 24 8 24 25 25 25 0z m-2280
-12 c0 -6 -4 -7 -10 -4 -5 3 -10 11 -10 16 0 6 5 7 10 4 6 -3 10 -11 10 -16z
m-507 1 l78 0 -3 -42 -3 -43 -114 0 -114 0 -1 42 c-1 45 13 56 59 47 11 -2 55
-4 98 -4z m427 -41 c0 -5 -4 -9 -10 -9 -5 0 -10 7 -10 16 0 8 5 12 10 9 6 -3
10 -10 10 -16z m2470 1 c8 -16 6 -21 -12 -31 -12 -7 -29 -18 -36 -26 -21 -20
-41 -16 -48 11 -9 35 4 49 37 42 22 -4 29 -2 29 9 0 21 17 18 30 -5z m-2393
-7 c5 -15 -34 -36 -53 -29 -21 8 -17 21 9 34 25 12 39 11 44 -5z m2154 -6
c-10 -9 -11 -8 -5 6 3 10 9 15 12 12 3 -3 0 -11 -7 -18z m-2351 -17 c9 -16 8
-22 -5 -26 -23 -9 -48 15 -34 32 16 19 26 17 39 -6z m-530 6 c0 -3 -4 -8 -10
-11 -5 -3 -10 -1 -10 4 0 6 5 11 10 11 6 0 10 -2 10 -4z m2850 -6 c0 -5 -4
-10 -10 -10 -5 0 -10 5 -10 10 0 6 5 10 10 10 6 0 10 -4 10 -10z m445 -10 c-3
-5 -12 -7 -20 -3 -8 3 -15 0 -15 -6 0 -6 7 -11 15 -11 8 0 15 -6 15 -14 0 -7
-10 -13 -22 -12 -17 1 -23 8 -25 29 -2 24 2 27 28 27 17 0 28 -4 24 -10z
m-3256 -42 c-5 -10 -16 -18 -25 -18 -13 0 -12 4 2 31 12 24 18 28 24 18 5 -7
4 -21 -1 -31z m331 22 c0 -5 -11 -10 -25 -10 -14 0 -25 5 -25 10 0 6 11 10 25
10 14 0 25 -4 25 -10z m2584 -18 c-8 -7 -11 -18 -8 -24 9 -15 -30 7 -45 25
-10 13 -6 15 27 14 34 -1 38 -3 26 -15z m-2675 -51 l-2 -59 -93 -1 -94 -2 0
61 0 60 95 0 96 0 -2 -59z m3299 22 c-2 -14 -15 -35 -29 -45 -21 -16 -32 -18
-60 -10 l-34 9 25 11 c14 5 36 22 49 36 32 34 53 34 49 -1z m-3204 4 c14 -10
15 -18 7 -40 -12 -31 -12 -31 -46 -15 -29 13 -30 16 -9 46 18 25 24 27 48 9z
m2476 1 c0 -9 4 -8 10 2 5 8 10 12 10 8 0 -3 3 -13 6 -22 4 -11 -1 -14 -20
-12 -15 1 -26 6 -26 9 0 4 0 12 0 17 0 6 5 10 10 10 6 0 10 -6 10 -12z m242
-16 c-5 -15 -34 -12 -39 4 -2 7 6 11 20 10 16 0 23 -6 19 -14z m88 8 c0 -5 6
-10 13 -10 14 0 16 -27 3 -48 -10 -16 -34 -15 -52 2 -15 15 -19 48 -7 59 10
11 43 8 43 -3z m-3162 -23 c6 -32 -8 -66 -32 -79 -23 -13 -24 -14 -11 -53 14
-40 11 -61 -5 -35 -6 8 -10 11 -10 5 0 -5 -5 -2 -11 7 -7 12 -7 24 0 37 12 21
5 31 -20 31 -22 0 -34 46 -17 68 23 32 43 43 73 40 20 -2 31 -9 33 -21z m472
-8 c13 -22 -1 -49 -26 -49 -18 0 -28 38 -14 55 17 20 27 19 40 -6z m60 0 c9
-15 8 -24 -1 -35 -21 -25 -37 -16 -34 19 3 39 3 37 15 37 5 0 14 -9 20 -21z
m2315 1 c3 -5 -1 -10 -10 -10 -9 0 -13 5 -10 10 3 6 8 10 10 10 2 0 7 -4 10
-10z m113 -10 c7 -11 19 -20 27 -20 17 0 21 -35 5 -45 -5 -3 -10 -15 -10 -25
0 -20 -38 -53 -51 -44 -4 2 -10 0 -14 -6 -9 -15 -55 -12 -55 4 0 7 -7 19 -15
26 -33 27 -8 85 50 114 39 21 48 20 63 -4z m635 -30 c-4 -14 0 -20 11 -20 20
0 21 -14 1 -30 -13 -10 -19 -10 -35 5 -25 22 -26 51 -3 64 23 12 32 6 26 -19z
m-3109 -20 c25 0 48 5 51 10 11 18 25 10 25 -14 0 -13 3 -26 8 -29 4 -2 0 -1
-8 2 -31 10 -129 12 -147 2 -17 -9 -19 -7 -15 21 4 23 2 29 -8 23 -9 -5 -11
-4 -6 4 6 9 14 8 32 -3 13 -9 43 -16 68 -16z m3056 -11 c0 -4 -7 -6 -15 -3 -8
4 -15 10 -15 15 0 4 7 6 15 3 8 -4 15 -10 15 -15z m-3297 -4 c4 -8 2 -17 -4
-20 -5 -4 -7 -10 -4 -15 3 -4 -3 -11 -12 -14 -26 -10 -45 20 -30 45 14 23 43
25 50 4z m414 -5 c12 0 13 -3 4 -13 -6 -8 -8 -17 -4 -20 3 -4 -5 -7 -20 -7
-16 0 -27 6 -29 18 -4 18 25 48 30 31 2 -5 11 -9 19 -9z m2563 5 c0 -8 -8 -15
-18 -15 -10 0 -19 7 -19 15 0 8 9 15 19 15 10 0 18 -7 18 -15z m290 0 c17 -20
5 -45 -22 -45 -17 0 -19 -3 -10 -12 17 -17 15 -33 -2 -19 -24 20 -13 91 14 91
4 0 13 -7 20 -15z m-433 -1 c-3 -3 -12 -4 -19 -1 -8 3 -5 6 6 6 11 1 17 -2 13
-5z m-2947 -35 c0 -23 -30 -23 -38 0 -3 10 0 12 13 7 13 -5 16 -2 11 9 -3 9
-2 13 4 10 6 -3 10 -15 10 -26z m3426 -17 c-9 -26 -35 -36 -43 -16 -7 19 27
58 40 45 5 -5 6 -18 3 -29z m95 16 c9 -17 9 -23 0 -26 -6 -2 -9 -7 -6 -12 7
-11 -31 -23 -45 -15 -15 9 -12 36 7 57 21 23 30 23 44 -4z m-3340 -18 c11 0
19 7 19 16 0 29 25 8 28 -23 3 -27 0 -32 -27 -38 -39 -8 -70 9 -68 38 1 26 21
43 25 22 2 -8 12 -15 23 -15z m3049 -4 c0 -28 -18 -46 -46 -46 -47 0 -57 52
-12 69 33 12 58 2 58 -23z m-2846 15 c9 -14 -3 -39 -22 -46 -20 -7 -47 19 -39
39 7 17 52 22 61 7z m2731 -16 c0 -15 -8 -21 -34 -23 l-33 -3 21 -23 c20 -21
21 -24 5 -30 -11 -4 -26 2 -44 19 -33 31 -44 31 -64 0 -18 -27 -24 -29 -46
-15 -12 7 -12 12 4 29 19 21 19 21 -12 21 -28 0 -32 4 -32 25 l0 26 118 -3
c109 -3 117 -4 117 -23z m-3359 -31 c-7 -18 34 -62 52 -56 21 7 13 -11 -20
-45 -33 -34 -54 -43 -45 -20 3 8 -3 20 -14 28 -10 7 -19 20 -19 27 0 11 -3 12
-13 3 -8 -6 -17 -8 -21 -4 -7 7 63 83 77 83 5 0 6 -7 3 -16z m761 -14 c-1 -11
-7 -20 -15 -20 -7 0 -10 5 -7 10 3 6 1 10 -6 10 -8 0 -8 4 1 15 15 19 29 11
27 -15z m2728 1 c-3 -6 -11 -11 -17 -11 -6 0 -6 6 2 15 14 17 26 13 15 -4z
m-3565 -12 c0 -5 -4 -9 -10 -9 -5 0 -10 7 -10 16 0 8 5 12 10 9 6 -3 10 -10
10 -16z m3133 9 c4 -14 -81 -60 -95 -52 -19 12 -2 38 32 50 46 16 57 17 63 2z
m617 -12 c0 -33 -25 -53 -45 -36 -18 15 -19 32 -3 48 21 21 48 14 48 -12z
m-3130 -31 c0 -32 -2 -35 -30 -35 -28 0 -30 3 -30 35 0 32 2 35 30 35 28 0 30
-3 30 -35z m2900 19 c0 -2 -9 -4 -21 -4 -11 0 -18 4 -14 10 5 8 35 3 35 -6z
m-2846 -8 c-3 -8 -1 -17 4 -20 16 -10 44 5 38 21 -4 10 -1 11 13 4 25 -14 19
-50 -11 -68 -22 -14 -27 -14 -50 1 -27 18 -31 52 -7 67 19 12 19 11 13 -5z
m-714 -6 c0 -5 -5 -10 -11 -10 -5 0 -7 5 -4 10 3 6 8 10 11 10 2 0 4 -4 4 -10z
m576 -17 c-7 -7 -26 7 -26 19 0 6 6 6 15 -2 9 -7 13 -15 11 -17z m279 17 c8
-13 -13 -40 -31 -40 -14 0 -19 31 -7 43 10 10 31 8 38 -3z m3000 4 c8 -4 23
-20 31 -37 15 -27 14 -31 -3 -48 -33 -33 -65 -33 -97 0 l-28 29 28 31 c28 32
40 36 69 25z m-675 -13 c0 -5 3 -16 6 -24 8 -21 -64 -46 -77 -26 -14 23 -11
29 24 44 38 17 47 18 47 6z m105 -11 c9 8 19 2 40 -26 l27 -36 33 32 c25 24
37 30 49 23 15 -8 15 -11 -4 -28 -29 -26 -25 -35 16 -35 28 0 35 -3 32 -17 -3
-16 -18 -18 -121 -21 -112 -3 -117 -2 -117 18 0 16 7 20 30 20 36 0 37 4 5 46
-14 18 -25 36 -25 41 0 4 5 0 11 -10 8 -13 14 -15 24 -7z m280 -48 c-6 -16 -7
-16 -16 0 -5 9 -6 24 -3 33 7 16 8 16 16 0 5 -9 7 -24 3 -33z m-3035 28 c0 -5
-7 -10 -16 -10 -8 0 -12 5 -9 10 3 6 10 10 16 10 5 0 9 -4 9 -10z m3430 -15
c17 -20 5 -45 -20 -45 -11 0 -23 7 -26 15 -6 15 11 45 26 45 4 0 13 -7 20 -15z
m-3550 -15 c0 -5 -4 -10 -10 -10 -5 0 -10 5 -10 10 0 6 5 10 10 10 6 0 10 -4
10 -10z m-379 -10 c29 -16 26 -67 -5 -81 -50 -23 -90 36 -50 75 18 19 28 20
55 6z m669 -5 c13 -16 6 -35 -15 -35 -16 0 -38 34 -28 44 11 10 30 7 43 -9z
m140 -2 c0 -10 -110 -53 -110 -43 0 4 21 17 48 28 53 23 62 25 62 15z m2318
-59 c14 -10 13 -12 -6 -18 -11 -4 -24 -17 -28 -28 -6 -20 -8 -20 -19 -5 -7 9
-22 17 -34 17 -22 0 -28 14 -10 26 6 3 8 17 4 31 -5 21 -3 24 14 18 12 -3 29
-2 38 4 15 8 19 6 21 -12 2 -12 11 -26 20 -33z m-2538 29 c24 -6 43 -21 64
-51 l30 -42 -30 -41 c-20 -27 -44 -46 -69 -55 -46 -16 -91 -18 -99 -5 -3 4
-18 11 -33 14 -31 6 -78 61 -76 89 3 29 53 88 77 88 11 0 28 5 36 10 15 11 34
9 100 -7z m3376 -14 c14 -27 14 -31 1 -26 -8 3 -24 -3 -36 -14 -20 -19 -20
-19 -36 10 -20 39 -20 39 12 39 15 0 29 5 31 11 6 17 10 14 28 -20z m-4058
-11 c-2 -12 -8 -23 -14 -25 -7 -2 -10 6 -7 22 6 30 26 34 21 3z m155 -3 c3
-16 0 -24 -7 -22 -14 4 -21 47 -8 47 5 0 12 -11 15 -25z m3753 17 c-3 -5 1
-20 9 -35 8 -16 10 -29 4 -32 -5 -4 -9 -2 -9 4 0 6 -7 8 -15 5 -10 -4 -15 0
-15 14 0 28 10 52 22 52 5 0 7 -4 4 -8z m-3421 -12 c-3 -5 -17 -10 -31 -10
-13 0 -24 5 -24 10 0 6 14 10 31 10 17 0 28 -4 24 -10z m379 -12 c4 -18 8 -20
18 -10 6 6 19 12 28 12 8 -1 3 -7 -13 -16 -30 -16 -57 -6 -57 22 0 22 17 16
24 -8z m-30 -40 c-5 -8 -10 -6 -15 8 -14 35 -10 50 7 26 8 -12 12 -27 8 -34z
m2501 23 c3 -5 1 -12 -5 -16 -6 -4 -8 -11 -5 -16 4 -5 -5 -4 -19 3 -26 11 -31
19 -19 31 10 10 41 8 48 -2z m192 -15 c-7 -14 -14 -23 -16 -20 -2 2 -13 -3
-23 -13 -28 -25 -21 -5 10 27 33 36 44 38 29 6z m-2587 9 c0 -9 -79 -45 -97
-44 -10 0 5 11 32 24 52 24 65 28 65 20z m2507 -11 c2 -6 -9 -11 -26 -12 -21
0 -28 3 -25 12 6 16 46 16 51 0z m-3329 -29 c5 -22 -14 -35 -55 -35 -39 0 -69
26 -53 45 24 29 102 22 108 -10z m3862 10 c0 -8 -7 -15 -15 -15 -8 0 -15 7
-15 15 0 8 7 15 15 15 8 0 15 -7 15 -15z m-4010 -9 c0 -8 -4 -17 -9 -21 -12
-7 -24 12 -16 25 9 15 25 12 25 -4z m3465 4 c3 -5 -1 -10 -10 -10 -9 0 -13 5
-10 10 3 6 8 10 10 10 2 0 7 -4 10 -10z m145 -32 c0 -6 -7 -5 -15 2 -8 7 -15
17 -15 22 0 6 7 5 15 -2 8 -7 15 -17 15 -22z m-2640 6 c0 -8 -4 -12 -10 -9 -5
3 -10 10 -10 16 0 5 5 9 10 9 6 0 10 -7 10 -16z m2315 6 c-3 -5 -15 -10 -26
-10 -12 0 -17 -4 -14 -11 4 -6 13 -8 20 -5 7 2 16 -1 18 -9 4 -8 -4 -15 -19
-18 -27 -5 -28 -4 -38 36 -6 26 -5 27 29 27 22 0 34 -4 30 -10z m-105 -34 c0
-35 -17 -50 -46 -39 -22 8 -15 58 8 57 10 -1 15 2 12 7 -3 5 2 9 10 9 11 0 16
-10 16 -34z m253 4 c42 -37 65 -86 48 -103 -19 -19 -12 -47 14 -57 32 -12 31
-16 -4 -35 -16 -8 -32 -24 -36 -35 -3 -11 -22 -27 -41 -36 -32 -15 -37 -15
-70 1 -19 9 -39 27 -44 41 -5 13 -13 24 -18 24 -4 0 -17 6 -28 14 -18 14 -18
15 9 25 28 11 36 38 16 58 -27 27 55 133 101 133 11 0 35 -13 53 -30z m551 3
l20 -27 -27 20 c-14 10 -27 22 -27 27 0 15 16 6 34 -20z m126 17 c0 -5 -4 -10
-10 -10 -5 0 -10 5 -10 10 0 6 5 10 10 10 6 0 10 -4 10 -10z m-530 -15 c7 -8
8 -15 2 -15 -5 0 -15 7 -22 15 -7 8 -8 15 -2 15 5 0 15 -7 22 -15z m-2623 -3
c10 -6 9 -13 -3 -30 -19 -27 -54 -28 -85 -3 -26 21 -22 25 31 34 42 7 45 7 57
-1z m-127 -21 c0 -5 -10 -12 -22 -14 l-23 -4 23 -8 c29 -10 28 -25 -2 -25 -17
0 -25 7 -28 25 -3 13 -3 27 0 30 9 9 52 5 52 -4z m3191 -24 c-11 -12 -24 -18
-27 -14 -10 10 27 48 38 41 6 -4 1 -16 -11 -27z m-3909 -29 c-9 -9 -12 -4 -11
23 0 32 1 33 11 11 8 -17 8 -26 0 -34z m418 41 c0 -5 -4 -7 -10 -4 -5 3 -10
-1 -10 -9 0 -9 -7 -16 -16 -16 -8 0 -12 -4 -9 -10 3 -5 1 -10 -4 -10 -12 0
-15 43 -4 53 10 11 53 8 53 -4z m442 -21 c-7 -7 -12 -8 -12 -2 0 14 12 26 19
19 2 -3 -1 -11 -7 -17z m-432 -7 c0 -13 -29 -35 -37 -28 -7 8 15 37 28 37 5 0
9 -4 9 -9z m3020 0 c0 -3 -4 -12 -9 -20 -7 -10 -13 -11 -30 -2 -30 17 -26 30
9 29 17 -1 30 -4 30 -7z m-2635 -11 c3 -5 -3 -10 -15 -10 -12 0 -18 5 -15 10
3 6 10 10 15 10 5 0 12 -4 15 -10z m2325 -5 c0 -8 -9 -15 -20 -15 -25 0 -26
17 -2 23 9 3 18 5 20 6 1 0 2 -6 2 -14z m-2546 -4 c7 -11 -14 -20 -31 -13 -7
2 -10 8 -7 13 7 12 31 12 38 0z m2494 -35 c-1 -1 -16 -8 -33 -16 -16 -8 -33
-16 -37 -18 -5 -2 -8 10 -8 27 0 35 7 39 27 14 14 -17 14 -17 9 0 -10 30 3 38
25 16 11 -11 19 -22 17 -23z m437 27 c15 -21 -9 -53 -35 -46 -22 6 -23 50 -1
56 9 3 18 5 20 6 2 0 9 -6 16 -16z m505 -3 c0 -10 8 -24 18 -29 16 -10 15 -11
-5 -17 -11 -3 -24 -16 -27 -27 -6 -21 -7 -21 -20 -4 -7 9 -23 17 -36 17 -19 0
-20 2 -10 15 7 8 10 24 7 36 -5 18 -2 20 18 15 13 -3 27 -2 30 4 10 17 25 11
25 -10z m-4169 0 c5 0 9 -4 9 -9 0 -12 -38 -2 -47 12 -4 7 0 8 11 4 10 -4 22
-7 27 -7z m4056 -56 c-9 -10 -37 9 -37 25 0 30 14 33 28 5 7 -14 12 -28 9 -30z
m-3517 20 c0 -15 -27 -30 -36 -21 -3 3 -3 15 1 26 7 22 35 18 35 -5z m-442 2
c-7 -8 -15 -12 -17 -11 -5 6 10 25 20 25 5 0 4 -6 -3 -14z m571 -12 c28 -20
61 -88 61 -129 0 -55 -22 -109 -60 -147 -30 -30 -45 -38 -74 -38 -43 0 -82 33
-91 77 -4 15 -10 36 -16 45 -16 30 -10 87 10 107 10 10 22 28 26 40 17 53 96
78 144 45z m2551 -14 c0 -5 -7 -10 -15 -10 -8 0 -15 5 -15 10 0 6 7 10 15 10
8 0 15 -4 15 -10z m-72 -23 c3 -13 -3 -16 -21 -15 -18 2 -23 7 -19 21 6 22 35
18 40 -6z m1052 -8 c-12 -7 -12 -11 -2 -17 7 -5 10 -16 6 -25 -9 -25 -27 -21
-19 4 5 15 4 19 -4 15 -17 -11 -13 5 6 26 9 10 19 16 22 13 3 -4 -1 -10 -9
-16z m-3400 0 c0 -5 -5 -7 -12 -3 -8 5 -9 2 -5 -9 5 -13 1 -17 -17 -17 -35 0
-39 12 -9 26 36 16 43 16 43 3z m3321 -16 c6 -16 3 -29 -10 -45 -16 -19 -21
-20 -35 -9 -30 25 -13 86 23 79 7 -2 17 -13 22 -25z m-851 -2 c15 -28 13 -39
-10 -46 -26 -8 -47 4 -29 17 11 8 10 9 -3 5 -23 -8 -31 20 -10 32 26 15 40 13
52 -8z m-3221 -17 c12 -11 12 -18 3 -39 -10 -21 -17 -25 -35 -19 -12 3 -29 13
-39 21 -17 15 -16 17 -58 -37 l-19 -25 -1 29 c0 16 9 44 21 63 20 33 23 34 68
27 25 -3 52 -12 60 -20z m58 15 c14 -14 6 -39 -12 -39 -7 0 -12 11 -12 25 0
27 7 31 24 14z m3009 -54 c-3 -8 -10 -15 -15 -15 -7 0 -6 10 1 26 12 26 25 16
14 -11z m98 -6 c11 -33 1 -75 -20 -83 -47 -18 -83 38 -57 88 19 36 63 33 77
-5z m-2424 1 c0 -5 -4 -10 -10 -10 -5 0 -10 5 -10 10 0 6 5 10 10 10 6 0 10
-4 10 -10z m3427 -8 c6 -4 17 -20 23 -36 9 -24 7 -31 -7 -42 -38 -28 -85 -8
-95 41 -6 31 48 57 79 37z m-4233 -18 c19 -18 21 -64 4 -64 -18 0 -48 31 -48
50 0 32 20 39 44 14z m112 -6 c-4 -38 -24 -65 -56 -76 -36 -13 -37 -11 -5 24
14 15 25 35 25 45 0 15 12 26 32 28 4 1 6 -9 4 -21z m674 1 c0 -11 -4 -17 -10
-14 -5 3 -10 13 -10 21 0 8 5 14 10 14 6 0 10 -9 10 -21z m360 16 c0 -3 -9
-14 -20 -25 -20 -20 -36 -11 -26 15 5 14 46 22 46 10z m2977 -25 c-1 -11 -6
-20 -13 -20 -9 0 -12 31 -5 48 4 11 19 -12 18 -28z m-3307 -10 c0 -16 -4 -30
-10 -30 -5 0 -10 14 -10 30 0 17 5 30 10 30 6 0 10 -13 10 -30z m2523 23 c-7
-2 -13 -9 -13 -14 0 -6 6 -7 13 -3 6 4 5 -1 -5 -11 -13 -14 -22 -15 -45 -8
l-28 10 35 16 c19 8 40 15 45 15 6 0 4 -2 -2 -5z m-2188 -23 c-3 -5 -10 -10
-16 -10 -5 0 -9 5 -9 10 0 6 7 10 16 10 8 0 12 -4 9 -10z m1946 -21 c13 -24 0
-42 -38 -53 -18 -6 -24 -2 -29 19 -12 48 44 77 67 34z m36 6 c9 -25 -4 -29
-17 -6 -7 15 -7 21 0 21 6 0 13 -7 17 -15z m341 -16 c-10 -7 -10 -9 2 -9 10 0
11 -3 2 -12 -19 -19 -44 9 -31 34 8 16 13 17 25 7 12 -10 12 -14 2 -20z m-64
-19 l66 -30 0 -88 0 -88 -65 -28 -66 -28 -67 30 -67 30 0 83 0 84 65 32 c36
17 66 32 66 32 1 1 31 -13 68 -29z m744 18 c20 -20 14 -47 -12 -54 -32 -8 -46
2 -46 31 0 32 35 46 58 23z m-568 -24 c8 -8 9 -14 4 -13 -21 4 -28 -2 -14 -11
13 -9 13 -11 0 -19 -19 -13 -31 -4 -23 16 5 12 2 15 -10 10 -20 -7 -22 4 -5
21 16 16 33 15 48 -4z m-3608 -18 c20 -29 2 -38 -41 -20 -28 12 -31 16 -21 29
14 16 49 11 62 -9z m3723 14 c7 -12 -2 -12 -30 0 -19 8 -19 9 2 9 12 1 25 -3
28 -9z m-2919 -25 c10 -41 -23 -69 -50 -42 -12 11 -12 19 -1 55 8 23 44 14 51
-13z m287 18 c-7 -2 -21 -2 -30 0 -10 3 -4 5 12 5 17 0 24 -2 18 -5z m3129 -8
c0 -5 -5 -11 -11 -13 -6 -2 -11 4 -11 13 0 9 5 15 11 13 6 -2 11 -8 11 -13z
m-530 -21 c-3 -18 -3 -18 11 1 19 25 32 14 17 -14 -9 -17 -15 -19 -30 -11 -22
12 -28 55 -7 47 6 -2 11 -13 9 -23z m-3586 5 c8 -14 -18 -31 -30 -19 -9 9 0
30 14 30 5 0 12 -5 16 -11z m964 2 c0 -5 -7 -11 -15 -15 -15 -5 -20 5 -8 17 9
10 23 9 23 -2z m2690 -12 c0 -5 -4 -9 -10 -9 -5 0 -10 7 -10 16 0 8 5 12 10 9
6 -3 10 -10 10 -16z m-3230 -8 c0 -13 -6 -18 -17 -17 -10 2 -17 6 -15 9 1 4 2
12 2 17 0 6 7 10 15 10 8 0 15 -9 15 -19z m381 9 c21 -12 25 -50 7 -68 -39
-39 -100 17 -63 58 21 23 29 24 56 10z m2133 0 c59 -22 5 -113 -60 -102 -36 5
-37 48 -2 83 34 33 29 32 62 19z m84 -10 c5 -15 -16 -30 -35 -23 -7 3 -13 14
-13 24 0 14 6 18 22 16 12 -2 24 -10 26 -17z m-3079 -24 c28 0 46 -6 49 -15 4
-11 -4 -13 -37 -8 -22 3 -41 1 -41 -4 0 -5 -7 -9 -15 -9 -8 0 -15 7 -15 15 0
10 -8 13 -27 9 -16 -2 -35 0 -43 6 -26 17 7 29 48 18 20 -6 56 -11 81 -12z
m997 16 c18 -12 23 -50 7 -56 -27 -11 -42 -6 -53 15 -18 32 15 62 46 41z
m2171 -6 c1 -1 0 -12 -4 -24 -4 -15 -13 -22 -30 -22 -13 0 -22 4 -18 9 3 5 1
12 -5 16 -17 10 13 35 35 28 11 -3 21 -6 22 -7z m1013 -6 c0 -9 5 -21 12 -28
9 -9 7 -12 -9 -12 -11 0 -24 -8 -28 -17 -6 -17 -7 -17 -16 0 -6 9 -17 17 -24
17 -17 0 -20 16 -4 25 6 4 8 13 5 20 -3 9 5 13 30 12 24 -1 34 -6 34 -17z
m-570 -45 l0 -55 -55 0 -55 0 0 55 0 55 55 0 55 0 0 -55z m-2839 -8 c-8 -8
-11 -4 -11 14 0 33 14 47 18 19 2 -12 -1 -27 -7 -33z m145 28 c6 -24 0 -44
-10 -34 -11 11 -17 59 -7 59 6 0 13 -11 17 -25z m155 8 c12 -14 12 -16 0 -8
-11 6 -13 4 -8 -8 4 -11 1 -17 -8 -17 -9 0 -12 6 -8 17 5 12 3 14 -8 8 -12 -8
-12 -6 0 8 7 9 15 17 16 17 1 0 9 -8 16 -17z m150 0 c7 -7 5 -14 -6 -23 -18
-15 -47 3 -39 25 6 15 29 14 45 -2z m-501 -28 c0 -21 -5 -25 -30 -25 -37 0
-38 -9 -5 -40 14 -13 25 -28 25 -34 0 -5 -6 -2 -13 9 -11 13 -16 15 -22 6 -5
-9 -17 -3 -42 21 l-34 33 -28 -31 c-23 -25 -31 -29 -44 -19 -14 10 -14 14 6
33 l21 22 -37 0 c-29 0 -37 4 -37 18 0 10 3 22 7 25 3 4 57 7 120 7 l113 0 0
-25z m394 -1 c3 -8 2 -12 -4 -9 -6 3 -10 10 -10 16 0 14 7 11 14 -7z m2576 0
c11 -12 10 -18 -3 -32 -16 -15 -17 -15 -18 3 0 11 -3 14 -6 7 -6 -16 -23 -6
-23 15 0 10 6 13 16 9 8 -3 12 -2 9 4 -10 16 11 11 25 -6z m563 9 c-7 -3 -13
-9 -13 -15 0 -12 -26 -39 -32 -32 -3 2 -3 15 -1 28 4 18 11 23 31 23 15 0 21
-2 15 -4z m-2955 -45 c-3 -29 -6 -33 -33 -33 -27 0 -30 4 -33 33 -3 31 -2 32
33 32 35 0 36 -1 33 -32z m-423 8 c11 -8 16 -19 12 -30 -10 -26 -85 -18 -105
12 -13 20 -13 22 1 17 8 -4 18 -2 22 4 9 15 48 14 70 -3z m3395 5 c0 -13 -26
-32 -33 -24 -8 7 11 33 24 33 5 0 9 -4 9 -9z m-3795 -15 c27 -19 13 -46 -25
-46 -38 0 -52 27 -25 46 10 8 22 14 25 14 3 0 15 -6 25 -14z m700 4 c3 -6 -1
-7 -9 -4 -18 7 -21 14 -7 14 6 0 13 -4 16 -10z m-185 -12 c0 -7 3 -23 6 -35 4
-15 2 -23 -6 -23 -7 0 -10 7 -6 15 3 9 -1 18 -9 21 -7 3 -11 12 -8 20 6 17 23
19 23 2z m2120 -3 c11 -13 9 -20 -9 -39 -12 -13 -23 -36 -24 -52 -3 -33 -15
-37 -31 -12 -9 15 -6 23 17 43 32 31 34 39 7 30 -16 -5 -20 -2 -20 15 0 17 4
20 21 15 15 -5 19 -4 15 4 -11 17 10 13 24 -4z m1040 0 c9 -10 9 -15 1 -15 -6
0 -10 -6 -8 -12 1 -7 -5 -13 -13 -13 -8 0 -14 6 -12 13 1 6 -3 12 -9 12 -8 0
-8 5 1 15 7 8 16 15 20 15 4 0 13 -7 20 -15z m-1210 -11 c0 -8 -5 -12 -10 -9
-6 4 -8 11 -5 16 9 14 15 11 15 -7z m-3020 -28 c0 -36 -13 -55 -25 -36 -9 14
4 70 16 70 5 0 9 -15 9 -34z m68 -8 c-4 -41 -28 -50 -28 -10 0 16 3 32 7 35
15 16 24 5 21 -25z m1212 22 c0 -5 -4 -10 -10 -10 -5 0 -10 5 -10 10 0 6 5 10
10 10 6 0 10 -4 10 -10z m155 -4 c12 -12 12 -16 0 -26 -11 -9 -15 -10 -15 -1
0 7 -4 9 -10 6 -11 -7 -14 18 -3 28 9 10 13 9 28 -7z m2214 2 c18 -11 18 -48
1 -48 -5 0 -15 -3 -23 -6 -19 -7 -30 34 -14 52 15 16 13 16 36 2z m139 3 c23
-14 10 -46 -21 -49 -31 -4 -46 20 -27 43 14 17 29 19 48 6z m-2618 -17 c11
-12 10 -18 -3 -32 -16 -15 -18 -15 -33 0 -19 18 -12 48 9 48 8 0 20 -7 27 -16z
m1770 1 c0 -8 -6 -15 -14 -15 -8 0 -16 7 -20 15 -4 10 1 15 14 15 11 0 20 -7
20 -15z m-1910 -5 c0 -5 -5 -10 -11 -10 -5 0 -8 -4 -4 -9 9 -16 -14 -23 -37
-10 -21 11 -21 12 8 24 37 17 44 17 44 5z m3300 -10 c15 -15 20 -33 20 -75 l0
-55 -75 0 -75 0 0 55 c0 67 22 95 75 95 22 0 43 -8 55 -20z m-3810 -5 c10 -12
9 -15 -6 -16 -11 0 -14 -3 -6 -6 20 -8 14 -23 -9 -23 -15 0 -19 5 -15 15 3 8
0 15 -6 15 -7 0 -6 5 2 15 7 8 16 15 20 15 4 0 13 -7 20 -15z m136 -26 l31
-30 26 30 c14 17 30 31 36 31 22 0 22 -23 0 -46 l-22 -24 36 0 c30 0 37 -4 37
-20 0 -19 -7 -20 -120 -20 -113 0 -120 1 -120 20 0 16 7 20 35 20 40 0 44 9
15 35 -16 14 -17 20 -8 27 19 11 19 11 54 -23z m2364 27 c0 -2 -7 -7 -16 -10
-8 -3 -12 -2 -9 4 6 10 25 14 25 6z m-1690 -16 c0 -5 -4 -10 -10 -10 -5 0 -10
5 -10 10 0 6 5 10 10 10 6 0 10 -4 10 -10z m112 -64 c-16 -28 -62 -47 -62 -26
0 6 4 10 10 10 5 0 12 11 16 25 3 14 10 25 15 25 5 0 9 8 9 17 0 15 2 14 14
-3 13 -17 13 -23 -2 -48z m-66 39 c10 -8 14 -15 8 -15 -5 0 -19 7 -30 15 -10
8 -14 15 -8 15 5 0 19 -7 30 -15z m1474 5 c0 -5 -7 -10 -16 -10 -8 0 -12 5 -9
10 3 6 10 10 16 10 5 0 9 -4 9 -10z m460 6 c0 -3 -4 -8 -10 -11 -5 -3 -10 -1
-10 4 0 6 5 11 10 11 6 0 10 -2 10 -4z m37 -18 c-3 -8 -6 -5 -6 6 -1 11 2 17
5 13 3 -3 4 -12 1 -19z m-2282 -23 c-37 -30 -45 -31 -45 -5 0 13 5 18 15 14 8
-4 15 -1 15 6 0 7 7 10 15 6 8 -3 15 0 15 6 0 6 3 8 7 4 4 -4 -6 -18 -22 -31z
m497 11 c12 -17 9 -25 -12 -36 -40 -21 -83 26 -43 48 18 11 44 5 55 -12z
m2144 15 c-3 -5 1 -14 9 -21 7 -6 11 -19 8 -27 -4 -11 -2 -14 5 -9 7 4 12 2
12 -4 0 -12 -37 -5 -53 10 -10 9 2 60 15 60 5 0 7 -4 4 -9z m49 -12 c9 -29 -4
-38 -21 -15 -18 25 -18 36 0 36 8 0 18 -9 21 -21z m-705 -59 l0 -70 -75 0 -75
0 0 70 0 70 75 0 75 0 0 -70z m480 55 c0 -8 -7 -15 -15 -15 -16 0 -20 12 -8
23 11 12 23 8 23 -8z m270 7 c0 -4 9 -8 20 -8 11 0 20 4 20 8 0 4 5 8 10 8 6
0 10 -15 10 -33 0 -31 -1 -32 -40 -32 -39 0 -40 1 -40 32 0 18 5 33 10 33 6 0
10 -4 10 -8z m-980 -5 c0 -2 -10 -12 -22 -23 l-23 -19 19 23 c18 21 26 27 26
19z m-26 -80 c-18 -11 -67 22 -60 40 4 8 6 19 6 24 0 5 15 -5 33 -23 25 -25
30 -35 21 -41z m465 52 c8 12 12 12 25 2 9 -8 16 -10 16 -7 0 13 40 -15 56
-40 21 -31 12 -41 -18 -20 -12 9 -41 16 -63 16 -30 0 -43 5 -54 21 -11 18 -11
23 0 30 8 5 17 3 21 -4 6 -9 10 -8 17 2z m361 -5 c11 -12 10 -18 -3 -32 -16
-15 -18 -15 -34 0 -13 14 -14 20 -3 32 7 9 16 16 20 16 4 0 13 -7 20 -16z
m-80 -4 c0 -5 -4 -10 -10 -10 -5 0 -10 5 -10 10 0 6 5 10 10 10 6 0 10 -4 10
-10z m-1900 -10 c-8 -5 -11 -10 -5 -10 5 0 4 -5 -2 -11 -7 -7 -23 -9 -40 -4
l-28 7 30 13 c37 17 68 20 45 5z m1505 0 c3 -5 1 -10 -4 -10 -6 0 -11 5 -11
10 0 6 2 10 4 10 3 0 8 -4 11 -10z m-432 -16 c-7 -3 -9 -12 -6 -20 6 -16 -23
-19 -46 -5 -10 6 -6 11 15 19 28 10 60 15 37 6z m-2689 -26 c26 -37 19 -54 -9
-24 -14 15 -25 31 -25 37 0 16 18 10 34 -13z m87 -5 c6 -16 3 -28 -11 -45 -20
-23 -20 -23 -35 -4 -18 24 -19 48 -3 64 18 18 39 11 49 -15z m614 -19 c0 -24
-4 -29 -25 -29 -20 0 -25 5 -25 25 0 18 5 25 17 24 10 -1 15 3 12 8 -4 6 -1 9
7 6 8 -3 14 -18 14 -34z m546 26 c29 -16 26 -67 -6 -82 -38 -17 -75 3 -75 41
0 43 39 63 81 41z m415 -6 c7 18 8 18 21 0 20 -27 16 -31 -27 -31 -45 0 -45 0
-28 27 12 18 13 19 19 2 6 -16 7 -16 15 2z m-1706 -6 c0 -6 -7 -20 -17 -30
-15 -17 -15 -19 2 -38 23 -26 5 -26 -25 0 -20 18 -21 22 -10 50 12 29 50 43
50 18z m2658 -2 c17 -10 15 -27 -2 -20 -7 3 -16 -2 -19 -10 -9 -23 3 -48 19
-42 8 3 14 1 14 -4 0 -11 -8 -16 -41 -24 -23 -5 -28 -1 -39 24 -25 59 18 107
68 76z m168 -24 c30 0 58 -3 62 -6 9 -9 -22 -28 -68 -42 -24 -7 -34 -15 -32
-27 2 -9 -1 -17 -6 -17 -17 0 -34 29 -28 46 3 8 1 24 -5 35 -8 15 -7 24 3 36
12 15 13 14 16 -5 3 -18 10 -20 58 -20z m433 5 c8 -23 8 -37 -3 -57 -18 -37
-7 -52 46 -65 27 -7 42 -16 40 -24 -1 -7 5 -19 14 -25 22 -17 10 -54 -21 -62
-46 -11 -61 21 -25 54 20 19 20 19 -42 26 -34 3 -68 12 -76 19 -17 17 -21 145
-5 155 6 4 23 8 36 8 20 2 28 -5 36 -29z m-2425 14 c9 -13 -19 -32 -38 -25
-19 7 -21 20 -3 27 20 8 35 8 41 -2z m324 0 c7 -4 17 -26 22 -47 11 -48 -7
-66 -60 -62 -29 3 -38 9 -53 41 -19 37 -19 37 5 57 24 20 64 26 86 11z m626
-14 c-3 -8 -12 -18 -19 -21 -16 -6 -8 24 9 36 14 9 18 4 10 -15z m1766 17 c0
-8 -32 -33 -42 -34 -5 0 -8 7 -8 16 0 10 6 14 15 10 8 -3 15 -1 15 4 0 6 5 10
10 10 6 0 10 -3 10 -6z m-2940 -23 c0 -13 -28 -22 -35 -11 -3 4 1 11 7 13 20
8 28 8 28 -2z m-581 -27 c-15 -18 -39 -18 -39 0 0 16 19 25 38 18 9 -3 10 -8
1 -18z m634 2 c37 -32 34 -39 -8 -15 -19 12 -35 25 -35 30 0 15 14 10 43 -15z
m975 -8 c11 -18 18 -36 15 -41 -3 -5 -9 -3 -14 4 -6 9 -9 10 -9 2 0 -6 -9 -15
-20 -18 -11 -4 -17 -11 -14 -17 4 -6 1 -9 -7 -6 -18 6 -54 67 -45 76 4 3 11 0
16 -8 6 -9 10 -10 10 -3 0 6 9 15 20 18 11 4 18 11 15 16 -4 5 -2 9 3 9 6 0
19 -14 30 -32z m80 19 c8 -10 6 -13 -9 -14 -10 -1 -19 5 -19 13 0 17 14 18 28
1z m173 -10 c-10 -9 -11 -8 -5 6 3 10 9 15 12 12 3 -3 0 -11 -7 -18z m-1422
-14 c40 -28 55 -50 26 -39 -8 3 -15 0 -15 -7 0 -7 -9 -19 -20 -27 -14 -10 -17
-17 -8 -27 6 -7 8 -16 5 -19 -9 -9 -98 56 -91 67 4 6 11 6 19 -1 10 -8 14 -7
18 7 4 16 6 15 12 -5 5 -15 13 -21 22 -18 8 3 17 6 19 6 2 0 4 9 4 20 0 15 -7
20 -27 20 -23 0 -25 2 -13 11 11 8 12 12 3 16 -15 6 -17 23 -3 23 5 0 28 -12
49 -27z m449 19 c7 -5 10 -16 6 -25 -7 -20 -6 -20 -38 -5 -20 9 -23 14 -15 25
13 15 28 16 47 5z m1652 -37 c0 -29 -14 -39 -46 -31 -29 8 -34 50 -7 65 25 13
53 -5 53 -34z m800 28 c0 -29 -44 -77 -64 -70 -30 12 -31 39 -2 64 32 28 66
31 66 6z m877 11 c-3 -3 -12 -4 -19 -1 -8 3 -5 6 6 6 11 1 17 -2 13 -5z m110
0 c-3 -3 -12 -4 -19 -1 -8 3 -5 6 6 6 11 1 17 -2 13 -5z m-3578 -18 c18 -22
-3 -56 -29 -49 -24 6 -23 5 -8 38 13 29 21 31 37 11z m651 4 c0 -5 -2 -10 -4
-10 -3 0 -8 5 -11 10 -3 6 -1 10 4 10 6 0 11 -4 11 -10z m1515 0 c3 -5 -1 -10
-9 -10 -8 0 -18 5 -21 10 -3 6 1 10 9 10 8 0 18 -4 21 -10z m120 0 c-3 -5 -12
-10 -20 -10 -8 0 -17 5 -20 10 -4 6 5 10 20 10 15 0 24 -4 20 -10z m398 -17
c3 -16 2 -32 -3 -38 -5 -5 -9 -14 -9 -20 -1 -5 -9 -10 -18 -10 -13 0 -19 9
-21 33 -6 57 41 88 51 35z m-2853 7 c0 -5 7 -7 16 -3 12 4 15 2 12 -8 -5 -16
-45 -21 -54 -8 -6 11 4 29 17 29 5 0 9 -4 9 -10z m1250 0 c0 -5 -2 -10 -4 -10
-3 0 -8 5 -11 10 -3 6 -1 10 4 10 6 0 11 -4 11 -10z m57 -16 c-9 -9 -28 6 -21
18 4 6 10 6 17 -1 6 -6 8 -13 4 -17z m108 16 c13 -5 14 -9 5 -9 -8 0 -24 4
-35 9 -13 5 -14 9 -5 9 8 0 24 -4 35 -9z m2225 0 c0 -5 -8 -10 -17 -10 -15 0
-16 2 -3 10 19 12 20 12 20 0z m110 2 c0 -5 -7 -9 -15 -9 -8 0 -15 4 -15 9 0
4 7 8 15 8 8 0 15 -4 15 -8z m-4300 -22 c-12 -23 -30 -27 -30 -7 0 17 10 27
27 27 11 0 11 -5 3 -20z m2128 -19 c-2 -18 -9 -26 -23 -26 -23 0 -32 30 -15
50 18 21 42 7 38 -24z m727 22 c-5 -15 -4 -16 6 -5 19 18 28 15 22 -8 -3 -11
-11 -20 -19 -20 -15 0 -36 34 -27 44 13 13 25 5 18 -11z m235 12 c0 -1 -10
-11 -23 -23 l-23 -21 -2 24 c-1 21 2 24 23 23 14 -1 25 -3 25 -3z m598 -40
c11 -23 10 -23 -19 -13 -16 5 -29 14 -29 18 0 5 -3 16 -6 25 -10 26 42 -2 54
-30z m544 30 c0 -5 -5 -11 -11 -13 -6 -2 -11 4 -11 13 0 9 5 15 11 13 6 -2 11
-8 11 -13z m-4172 -5 c0 -5 -7 -10 -15 -10 -8 0 -15 5 -15 10 0 6 7 10 15 10
8 0 15 -4 15 -10z m878 -25 c3 -25 2 -27 -12 -16 -19 16 -22 55 -3 49 6 -3 14
-17 15 -33z m965 15 c-3 -11 -9 -20 -14 -20 -11 0 -11 3 -3 24 9 23 23 20 17
-4z m1004 -2 c-3 -8 -6 -5 -6 6 -1 11 2 17 5 13 3 -3 4 -12 1 -19z m1410 0
c-3 -8 -6 -5 -6 6 -1 11 2 17 5 13 3 -3 4 -12 1 -19z m-2384 -9 c-4 -13 -9
-17 -15 -11 -11 11 -3 32 12 32 4 0 6 -9 3 -21z m377 11 c0 -5 -2 -10 -4 -10
-3 0 -8 5 -11 10 -3 6 -1 10 4 10 6 0 11 -4 11 -10z m-2394 -57 c-2 -2 -11 -1
-20 3 -19 7 -21 25 -4 42 10 10 14 7 20 -15 4 -15 6 -28 4 -30z m899 45 c28
-12 30 -20 15 -49 -11 -20 -13 -19 -68 17 -4 3 17 44 23 44 2 0 16 -5 30 -12z
m2283 0 c-3 -7 -13 -15 -24 -17 -16 -3 -17 -1 -5 13 16 19 34 21 29 4z m1074
-18 c3 -19 1 -29 -6 -27 -14 4 -21 57 -8 57 5 0 12 -14 14 -30z m-4154 -9 c-7
-12 -16 -21 -21 -21 -4 0 0 11 9 25 20 30 31 26 12 -4z m1172 5 c0 -8 -7 -19
-15 -26 -9 -8 -15 -8 -15 -2 0 6 6 13 13 16 6 3 1 3 -12 0 -17 -4 -22 -2 -18
7 2 8 10 13 16 12 6 -2 11 2 11 8 0 5 5 7 10 4 6 -3 10 -12 10 -19z m294 2 c9
-12 16 -29 16 -37 0 -19 -29 -51 -47 -51 -21 0 -53 38 -53 63 0 48 56 65 84
25z m945 8 c10 -12 7 -18 -14 -32 -14 -9 -28 -14 -32 -10 -3 3 -1 6 7 6 9 0
10 3 1 13 -8 10 -7 17 1 25 16 16 23 15 37 -2z m1056 4 c-3 -5 1 -10 10 -10 9
0 13 5 10 10 -8 13 15 13 35 0 11 -7 12 -10 2 -10 -7 0 -21 -7 -30 -16 -14
-15 -17 -15 -29 2 -16 22 -17 34 -2 34 5 0 7 -4 4 -10z m-1808 -22 c28 -26 29
-52 3 -78 -26 -26 -64 -25 -90 2 -25 27 -25 39 1 72 25 32 55 33 86 4z m293
12 c0 -5 -4 -10 -9 -10 -6 0 -13 5 -16 10 -3 6 1 10 9 10 9 0 16 -4 16 -10z
m725 -10 c-5 -14 -2 -20 9 -20 9 0 16 -7 16 -15 0 -10 -10 -15 -30 -15 -31 0
-38 17 -24 54 9 24 37 20 29 -4z m1109 4 c7 -19 -10 -44 -31 -44 -17 0 -27 24
-19 45 7 20 42 19 50 -1z m498 -19 c5 -21 2 -25 -20 -25 -20 0 -23 3 -14 12 7
7 12 20 12 31 0 26 17 13 22 -18z m-3607 -13 c-3 -8 -5 -18 -5 -23 0 -4 -7 -6
-15 -3 -9 4 -15 19 -15 35 0 27 2 28 20 17 11 -7 18 -19 15 -26z m1270 12 c6
-2 -8 -1 -30 2 -22 3 -44 10 -49 14 -8 8 53 -4 79 -16z m105 10 c0 -8 -5 -12
-10 -9 -6 4 -8 11 -5 16 9 14 15 11 15 -7z m460 2 c0 -15 -24 -28 -34 -19 -7
7 13 33 25 33 5 0 9 -6 9 -14z m-2569 -20 c6 3 18 -3 27 -14 9 -10 23 -21 30
-23 8 -3 6 -8 -7 -16 -28 -17 -78 22 -72 57 3 19 5 20 8 7 3 -9 9 -15 14 -11z
m2586 -11 c-17 -17 -67 -38 -74 -31 -3 2 10 12 29 22 18 9 37 24 42 33 7 11
11 12 14 3 2 -6 -3 -19 -11 -27z m1403 32 c0 -2 -15 -16 -32 -33 l-33 -29 29
33 c28 30 36 37 36 29z m-3020 -33 c0 -3 -5 -14 -10 -25 -9 -15 -15 -17 -30
-9 -16 9 -18 14 -8 35 9 20 14 22 29 14 11 -5 19 -12 19 -15z m1705 16 c3 -5
1 -10 -4 -10 -6 0 -11 5 -11 10 0 6 2 10 4 10 3 0 8 -4 11 -10z m1237 -25 c5
-21 2 -25 -20 -25 -20 0 -23 3 -14 12 7 7 12 20 12 31 0 26 17 13 22 -18z
m-2774 2 c17 -13 15 -62 -4 -81 -21 -22 -60 -20 -84 4 -23 23 -24 33 -9 61 18
35 63 42 97 16z m2000 3 c7 -11 20 -20 29 -20 14 0 12 -4 -7 -25 -13 -14 -28
-25 -33 -25 -6 0 -8 3 -4 6 7 7 -26 42 -35 37 -14 -7 -8 10 9 29 20 23 25 23
41 -2z m-1552 -46 c-7 -26 -26 -33 -26 -10 0 8 5 27 12 43 9 23 12 25 15 10 3
-10 2 -29 -1 -43z m199 15 c8 -34 -1 -51 -15 -29 -12 19 -13 73 -1 65 5 -3 12
-19 16 -36z m2220 21 c-17 -19 -35 -19 -35 0 0 5 6 7 14 4 8 -3 17 -1 21 5 3
6 9 11 12 11 3 0 -2 -9 -12 -20z m-3190 -2 c29 -13 31 -21 11 -37 -22 -18 -56
3 -49 29 6 24 5 23 38 8z m1392 6 c-3 -3 -12 -4 -19 -1 -8 3 -5 6 6 6 11 1 17
-2 13 -5z m1373 -39 l0 -45 -45 0 -45 0 0 45 0 45 45 0 45 0 0 -45z m-3460 15
c0 -11 -7 -20 -15 -20 -15 0 -21 21 -8 33 12 13 23 7 23 -13z m2049 17 c-2 -1
-13 -9 -24 -17 -19 -14 -19 -14 -6 3 7 9 18 17 24 17 6 0 8 -1 6 -3z m501 -7
c0 -5 -5 -10 -11 -10 -5 0 -7 5 -4 10 3 6 8 10 11 10 2 0 4 -4 4 -10z m733 -8
c-2 -10 -11 -19 -19 -19 -18 0 -18 2 2 21 20 21 23 20 17 -2z m407 8 c0 -5 -8
-31 -18 -57 -11 -26 -22 -57 -26 -67 -4 -12 -10 -16 -16 -10 -11 11 36 144 51
144 5 0 9 -4 9 -10z m220 7 c0 -2 -12 -14 -27 -28 l-28 -24 24 28 c23 25 31
32 31 24z m245 -7 c-3 -5 -15 -10 -25 -10 -10 0 -22 5 -25 10 -4 6 7 10 25 10
18 0 29 -4 25 -10z m-3622 -12 c30 -15 46 -39 47 -65 0 -27 -14 -36 -53 -35
-53 1 -90 77 -49 101 22 13 29 13 55 -1z m622 2 c8 -13 -5 -13 -25 0 -13 8
-13 10 2 10 9 0 20 -4 23 -10z m768 3 c-7 -2 -21 -2 -30 0 -10 3 -4 5 12 5 17
0 24 -2 18 -5z m1702 -13 c16 -50 -56 -87 -74 -37 -12 32 4 57 39 57 20 0 31
-6 35 -20z m-1755 6 c0 -3 -4 -8 -10 -11 -5 -3 -10 -1 -10 4 0 6 5 11 10 11 6
0 10 -2 10 -4z m-1916 -56 c14 0 43 -48 34 -55 -41 -33 -81 -31 -112 6 -56 67
-45 111 18 74 24 -14 50 -25 60 -25z m303 44 c-3 -3 -12 -4 -19 -1 -8 3 -5 6
6 6 11 1 17 -2 13 -5z m633 -16 c0 -27 -16 -55 -25 -46 -9 9 5 68 16 68 5 0 9
-10 9 -22z m192 -18 c3 -19 1 -29 -6 -27 -6 2 -12 18 -14 36 -4 41 14 33 20
-9z m39 23 c0 -11 3 -13 6 -5 5 13 23 17 23 5 -1 -36 -50 -37 -50 -2 0 24 20
25 21 2z m129 2 c0 -8 7 -15 15 -15 8 0 15 -3 15 -8 0 -4 -18 -7 -40 -7 -22 0
-40 3 -40 7 0 5 7 8 15 8 8 0 15 7 15 15 0 8 5 15 10 15 6 0 10 -7 10 -15z
m90 0 c0 -8 -9 -15 -20 -15 -20 0 -26 11 -13 23 12 13 33 7 33 -8z m560 6 c0
-12 -20 -25 -27 -18 -7 7 6 27 18 27 5 0 9 -4 9 -9z m593 -24 c-3 -5 -9 -3
-14 4 -4 7 -5 17 -2 22 3 5 9 3 14 -4 4 -7 5 -17 2 -22z m1711 17 c30 -30 13
-74 -29 -74 -27 0 -45 18 -45 45 0 42 44 59 74 29z m-3420 0 c9 -3 16 -10 16
-15 0 -14 -35 -28 -50 -19 -11 7 -11 11 -1 24 15 18 14 18 35 10z m392 -21
c-10 -10 -19 5 -10 18 6 11 8 11 12 0 2 -7 1 -15 -2 -18z m1354 17 c0 -5 -2
-10 -4 -10 -3 0 -8 5 -11 10 -3 6 -1 10 4 10 6 0 11 -4 11 -10z m1570 -9 c28
-53 -4 -120 -36 -76 -15 20 -19 77 -7 88 12 13 32 7 43 -12z m-3870 -7 c0 -17
-22 -14 -28 4 -2 7 3 12 12 12 9 0 16 -7 16 -16z m1515 -4 c3 -11 11 -20 16
-20 5 0 9 -9 9 -20 0 -21 -8 -24 -34 -14 -10 4 -16 18 -16 40 0 37 15 46 25
14z m483 -7 c2 -13 -1 -23 -7 -23 -6 0 -11 -11 -11 -24 0 -29 -24 -50 -46 -42
-14 5 -15 4 -4 -9 10 -12 10 -15 -2 -15 -16 0 -58 28 -58 39 0 15 47 30 58 19
15 -15 45 -1 39 16 -3 8 -1 17 6 19 7 2 9 7 6 11 -3 3 -39 -9 -80 -28 -46 -22
-94 -37 -128 -39 -53 -4 -53 -4 -68 30 -8 20 -11 38 -8 41 3 3 8 -3 11 -14 9
-36 85 -31 169 10 80 40 118 43 123 9z m-2204 -2 c8 -13 -4 -42 -15 -35 -12 7
-12 44 0 44 6 0 12 -4 15 -9z m1587 -10 c20 -16 22 -23 13 -38 -9 -14 -24 -18
-69 -18 -45 0 -60 4 -69 18 -9 15 -7 22 13 38 13 10 38 19 56 19 18 0 43 -9
56 -19z m1384 9 c4 -6 1 -18 -6 -26 -11 -13 -14 -13 -27 0 -8 8 -11 19 -8 25
9 14 33 14 41 1z m-2360 -20 c3 -5 1 -10 -4 -10 -6 0 -11 5 -11 10 0 6 2 10 4
10 3 0 8 -4 11 -10z m181 -12 c-20 -11 -44 1 -25 12 6 5 19 6 27 3 12 -5 12
-7 -2 -15z m589 -18 c1 -19 5 -43 9 -53 5 -10 3 -23 -4 -32 -30 -36 -63 -4
-62 60 0 54 8 67 35 63 18 -2 22 -10 22 -38z m895 25 c0 -8 6 -15 14 -15 26 0
27 -30 1 -42 -32 -14 -47 -1 -50 42 -1 23 2 30 17 30 10 0 18 -7 18 -15z m955
-4 c71 -33 105 -79 105 -141 0 -39 -51 -96 -93 -106 -18 -3 -43 -15 -56 -25
-13 -11 -40 -19 -61 -19 -21 0 -48 8 -61 19 -13 10 -38 22 -56 25 -18 4 -46
23 -64 43 -27 32 -31 42 -26 80 6 52 42 96 102 124 54 25 156 25 210 0z m683
-23 c18 3 14 -9 -10 -35 -21 -23 -40 -30 -36 -15 0 4 -2 15 -6 24 -6 13 -12
15 -26 8 -17 -9 -30 -4 -30 11 0 5 6 6 13 3 7 -2 24 7 37 21 l23 25 12 -23 c6
-12 17 -21 23 -19z m-1402 20 c4 -7 3 -10 -1 -5 -5 4 -17 -1 -27 -10 -15 -14
-19 -14 -16 -3 6 28 32 38 44 18z m934 -31 c0 -8 -7 -17 -15 -21 -8 -3 -14 -2
-14 2 3 19 -2 25 -11 12 -7 -11 -12 -12 -21 -3 -14 14 -2 36 17 29 8 -3 14 1
14 10 0 14 2 14 15 0 8 -8 15 -21 15 -29z m-3262 21 c14 -14 16 -32 2 -23 -6
3 -7 -1 -4 -9 4 -12 0 -16 -16 -16 -16 0 -20 4 -16 16 3 8 2 12 -4 9 -6 -3
-10 -2 -10 2 0 10 21 33 30 33 3 0 11 -5 18 -12z m828 -19 c22 -24 6 -46 -41
-55 -75 -14 -125 50 -56 72 41 13 75 8 97 -17z m1431 25 c-3 -3 -12 -4 -19 -1
-8 3 -5 6 6 6 11 1 17 -2 13 -5z m-1993 -10 c9 -3 16 -17 16 -31 0 -22 -2 -24
-15 -13 -13 11 -28 7 -86 -20 -87 -40 -174 -48 -174 -15 0 17 6 19 45 17 35
-2 61 5 115 32 78 39 77 38 99 30z m716 -13 c0 -20 -17 -37 -27 -28 -7 8 7 47
18 47 5 0 9 -9 9 -19z m50 0 c0 -20 -17 -37 -27 -28 -7 8 7 47 18 47 5 0 9 -9
9 -19z m655 9 c-3 -5 -13 -10 -21 -10 -8 0 -12 5 -9 10 3 6 13 10 21 10 8 0
12 -4 9 -10z m503 -3 c17 4 21 2 16 -10 -3 -8 -1 -18 5 -22 16 -9 13 -25 -4
-25 -7 0 -19 -8 -25 -17 -10 -17 -10 -17 -20 0 -6 9 -18 17 -27 17 -13 0 -14
3 -5 12 7 7 12 23 12 36 0 19 3 22 13 14 7 -6 23 -9 35 -5z m1149 -7 c5 -20
23 -28 23 -10 0 19 32 10 37 -10 6 -21 18 -26 28 -10 8 13 35 1 35 -16 0 -10
8 -12 30 -7 26 5 30 3 30 -16 0 -12 -6 -21 -15 -21 -8 0 -20 -11 -27 -23 l-13
-24 -83 30 c-79 29 -83 32 -77 55 3 14 1 28 -5 32 -15 9 -2 40 17 40 8 0 17
-9 20 -20z m243 -5 c-7 -8 -17 -15 -22 -15 -6 0 -5 7 2 15 7 8 17 15 22 15 6
0 5 -7 -2 -15z m-3191 -40 c-1 -26 -18 -48 -46 -60 -30 -13 -33 -12 -48 12
-10 14 -14 31 -9 41 7 16 7 16 11 0 5 -21 14 -23 31 -6 19 19 15 41 -5 34 -16
-5 -16 -4 1 8 16 13 21 13 42 -2 13 -9 23 -21 23 -27z m3577 30 c-23 -17 -36
-19 -36 -6 0 11 18 19 40 20 11 0 10 -3 -4 -14z m-4297 -20 c3 -17 2 -17 -13
-3 -19 20 -21 31 -3 26 6 -3 14 -13 16 -23z m796 15 c8 -13 -5 -13 -25 0 -13
8 -13 10 2 10 9 0 20 -4 23 -10z m455 0 c0 -5 -9 -10 -21 -10 -11 0 -17 -5
-14 -10 4 -6 10 -8 15 -5 4 3 10 -2 14 -10 4 -11 -2 -15 -19 -15 -15 0 -25 6
-25 14 0 8 -3 21 -6 30 -5 13 1 16 25 16 17 0 31 -4 31 -10z m588 -17 c18 -25
15 -38 -13 -53 -30 -16 -71 -5 -89 22 -8 13 -6 22 8 37 21 23 74 20 94 -6z
m187 17 c-3 -5 -13 -10 -21 -10 -8 0 -12 5 -9 10 3 6 13 10 21 10 8 0 12 -4 9
-10z m201 -12 c41 -40 26 -53 -20 -17 -14 11 -24 25 -21 30 9 13 15 11 41 -13z
m1717 0 c9 -34 -21 -50 -43 -23 -16 20 -5 32 14 16 12 -10 14 -9 9 8 -3 12 -1
21 5 21 5 0 12 -10 15 -22z m-2013 4 c0 6 3 8 7 5 3 -4 -2 -16 -12 -27 -13
-15 -22 -17 -36 -9 -11 5 -19 16 -19 24 0 10 7 12 30 5 20 -6 30 -5 30 2z
m253 -17 c13 -19 15 -25 4 -25 -17 0 -37 20 -37 37 0 20 13 15 33 -12z m622
15 c3 -5 -1 -10 -10 -10 -9 0 -14 -4 -11 -9 10 -16 -21 -20 -41 -6 -17 14 -17
14 4 15 12 0 25 5 28 10 3 6 10 10 15 10 5 0 12 -4 15 -10z m-2715 -9 c0 -11
-31 -24 -39 -16 -3 3 1 10 9 15 19 12 30 12 30 1z m176 -26 c-1 -30 -4 -35
-26 -35 -22 0 -25 5 -26 35 -1 32 1 35 26 35 24 0 26 -3 26 -35z m320 -21 c-3
-8 -18 -14 -33 -14 -22 0 -25 -2 -13 -10 12 -8 11 -10 -6 -10 -18 0 -64 36
-53 43 42 25 48 26 59 11 10 -11 16 -11 26 -3 7 6 13 14 12 17 -2 20 5 23 9 4
3 -13 2 -30 -1 -38z m180 40 c-5 -13 -3 -14 6 -7 19 15 48 12 48 -5 0 -11 -3
-12 -14 -3 -11 10 -16 8 -24 -5 -9 -15 -13 -16 -26 -5 -21 17 -21 41 0 41 11
0 14 -5 10 -16z m1374 6 c0 -5 -2 -10 -4 -10 -3 0 -8 5 -11 10 -3 6 -1 10 4
10 6 0 11 -4 11 -10z m-1168 -43 c6 -30 -19 -54 -41 -40 -20 13 -22 43 -3 65
18 21 37 10 44 -25z m1428 33 c0 -4 -7 -7 -15 -6 -23 3 -26 12 -5 13 11 1 20
-2 20 -7z m213 -7 c-4 -11 -3 -14 5 -9 22 13 12 -13 -10 -28 -34 -24 -39 -19
-21 19 17 35 38 50 26 18z m-958 -23 c0 -27 -22 -39 -31 -16 -8 22 3 49 19 43
6 -2 12 -14 12 -27z m1349 6 c-3 -9 -10 -13 -15 -10 -5 3 -3 11 4 19 15 16 19
13 11 -9z m-297 7 c-4 -3 -2 -12 4 -19 18 -22 -14 -48 -39 -33 -22 14 -18 46
7 52 26 7 35 7 28 0z m902 -11 c11 -20 4 -62 -10 -62 -5 0 -9 -6 -9 -14 0 -16
-49 -19 -67 -4 -12 10 -15 71 -3 63 3 -2 14 5 23 16 21 24 53 25 66 1z m-2710
-31 c17 -32 26 -39 61 -45 22 -3 40 -10 40 -14 0 -5 -13 -21 -29 -36 -26 -25
-28 -31 -19 -62 13 -50 3 -59 -40 -34 l-36 22 -38 -22 c-44 -24 -54 -15 -39
35 7 26 4 34 -23 63 -26 27 -28 34 -16 42 8 5 27 10 42 10 22 0 32 8 48 40 11
22 22 40 25 40 3 0 13 -17 24 -39z m155 31 c3 -5 -1 -9 -9 -9 -8 0 -15 4 -15
9 0 4 4 8 9 8 6 0 12 -4 15 -8z m525 -30 c9 -29 8 -31 -20 -30 -26 1 -44 18
-19 18 6 0 10 8 10 18 0 19 10 35 17 28 2 -2 8 -17 12 -34z m-1548 11 c8 -10
9 -14 2 -10 -6 4 -14 3 -18 -3 -3 -5 -1 -10 5 -10 6 0 8 -4 5 -10 -3 -5 -13
-10 -21 -10 -11 0 -13 6 -9 21 6 16 4 20 -6 13 -12 -6 -12 -5 0 9 7 9 17 17
21 17 4 0 14 -8 21 -17z m3012 2 c-3 -9 -8 -14 -10 -11 -3 3 -2 9 2 15 9 16
15 13 8 -4z m-2704 -53 c9 -16 18 -21 31 -17 15 5 17 2 13 -15 -5 -19 -14 -24
-40 -21 -6 1 -14 -3 -18 -9 -3 -5 -16 -10 -28 -10 -21 1 -21 1 -3 15 17 13 18
18 8 40 -7 14 -12 37 -12 51 0 24 1 24 19 7 10 -10 24 -28 30 -41z m155 34
l29 -24 -47 0 c-25 1 -51 7 -57 14 -6 8 -15 12 -19 9 -5 -3 -11 -2 -14 3 -9
15 39 11 59 -6 11 -9 14 -10 8 -2 -32 36 -1 40 41 6z m776 14 c0 -5 6 -10 14
-10 9 0 12 -7 9 -20 -3 -11 -11 -20 -18 -20 -19 0 -38 28 -31 45 6 17 26 21
26 5z m2880 -35 l0 -45 -115 0 -115 0 0 45 0 45 115 0 115 0 0 -45z m85 35
c-3 -5 -12 -10 -18 -10 -7 0 -6 4 3 10 19 12 23 12 15 0z m50 0 c3 -5 1 -10
-4 -10 -6 0 -11 5 -11 10 0 6 2 10 4 10 3 0 8 -4 11 -10z m-3079 -40 c8 0 14
-4 14 -10 0 -5 -4 -10 -10 -10 -5 0 -10 -10 -10 -23 0 -20 -5 -23 -35 -23 -27
0 -35 4 -35 17 0 10 -4 21 -10 24 -15 9 -12 25 5 25 8 0 19 9 26 21 l11 21 14
-21 c9 -12 22 -21 30 -21z m1568 34 c17 -6 22 -39 7 -48 -15 -9 -45 20 -38 38
7 18 9 19 31 10z m105 -3 c15 -10 6 -51 -12 -51 -25 0 -39 18 -32 39 7 22 21
26 44 12z m-1419 -20 c0 -24 -27 -48 -40 -35 -5 5 -7 19 -4 32 8 27 44 30 44
3z m2828 -24 c-4 -28 -49 -35 -69 -11 -12 14 -10 19 10 35 29 24 64 9 59 -24z
m-411 11 c-8 -4 -23 -5 -33 -1 -16 6 -16 7 2 13 26 10 52 0 31 -12z m-3269 0
c18 -18 14 -46 -7 -58 -19 -10 -50 -5 -52 9 0 3 -2 15 -4 26 -6 32 38 48 63
23z m132 2 c0 -5 -5 -10 -11 -10 -5 0 -8 -4 -4 -9 8 -14 -12 -23 -35 -16 -26
8 -26 25 -1 25 11 0 23 5 26 10 3 6 10 10 16 10 5 0 9 -4 9 -10z m649 -22
c-11 -21 -30 -23 -47 -6 -19 19 -14 25 22 24 29 -1 33 -3 25 -18z m-74 -38 c0
-18 -6 -26 -21 -28 -23 -3 -37 18 -27 44 10 25 48 13 48 -16z m-260 -16 c0
-24 -4 -29 -25 -29 -20 0 -25 5 -25 25 0 18 5 25 17 24 10 -1 15 3 12 8 -4 6
-1 9 7 6 8 -3 14 -18 14 -34z m1995 16 c-6 -11 -15 -20 -20 -20 -14 0 -12 27
3 33 23 10 28 7 17 -13z m720 10 c0 -5 -4 -10 -10 -10 -5 0 -10 5 -10 10 0 6
5 10 10 10 6 0 10 -4 10 -10z m-3061 -26 c26 -34 26 -42 -2 -78 -20 -24 -28
-27 -54 -22 -29 7 -63 42 -63 64 0 24 43 62 70 62 19 0 36 -9 49 -26z m2841
23 c0 -2 -9 -12 -20 -22 -19 -18 -20 -17 -20 3 0 15 6 22 20 22 11 0 20 -2 20
-3z m121 -14 c12 -15 12 -16 -4 -10 -10 4 -25 7 -33 7 -8 0 -14 5 -14 10 0 16
36 11 51 -7z m-206 -14 c-5 -15 -4 -19 4 -15 6 4 11 0 11 -9 0 -12 -35 -35
-54 -35 -2 0 5 18 16 40 22 43 34 53 23 19z m285 5 c0 -8 -4 -12 -10 -9 -5 3
-10 10 -10 16 0 5 5 9 10 9 6 0 10 -7 10 -16z m380 -42 l0 -60 -77 -4 c-113
-6 -113 -6 -113 61 l0 56 95 3 95 3 0 -59z m-579 25 c-13 -13 -26 -3 -16 12 3
6 11 8 17 5 6 -4 6 -10 -1 -17z m71 -12 l-3 -30 16 23 c16 22 35 29 35 13 0
-5 -7 -16 -15 -24 -11 -12 -12 -17 -2 -20 18 -8 -28 -8 -47 -1 -10 4 -16 18
-16 41 0 28 4 34 18 31 12 -3 16 -12 14 -33z m156 10 c-1 -14 -6 -25 -10 -25
-4 0 -8 11 -8 25 0 14 4 25 10 25 5 0 9 -11 8 -25z m133 -1 c28 -34 -48 -65
-77 -33 -16 18 -16 20 0 38 18 20 58 18 77 -5z m334 16 c3 -5 -1 -10 -9 -10
-10 0 -13 -6 -10 -15 4 -8 1 -15 -5 -15 -12 0 -14 11 -5 34 7 18 20 21 29 6z
m-55 -25 c-7 -9 -15 -13 -18 -10 -3 2 1 11 8 20 7 9 15 13 18 10 3 -2 -1 -11
-8 -20z m-1020 7 c0 -12 -49 -52 -53 -44 -10 16 13 52 33 52 11 0 20 -4 20 -8z
m532 -34 c-15 -15 -26 -4 -18 18 5 13 9 15 18 6 9 -9 9 -15 0 -24z m538 -3
c-14 -16 -60 -21 -60 -6 0 17 20 23 34 12 10 -9 15 -7 20 5 4 9 9 14 13 11 3
-4 0 -13 -7 -22z m-3940 -45 c0 -30 -22 -50 -57 -50 -30 0 -45 16 -47 49 -2
26 3 35 23 46 38 19 81 -4 81 -45z m2880 51 c0 -13 -26 -32 -33 -24 -8 7 11
33 24 33 5 0 9 -4 9 -9z m376 -9 c-3 -3 -2 -10 3 -16 6 -7 4 -19 -6 -31 -11
-14 -17 -16 -20 -7 -3 6 -10 12 -17 12 -8 0 -12 9 -9 23 3 15 12 22 29 23 14
1 23 -1 20 -4z m-2518 -13 c-2 -6 -8 -10 -13 -10 -5 0 -11 4 -13 10 -2 6 4 11
13 11 9 0 15 -5 13 -11z m2192 -11 c0 -13 -23 -5 -28 10 -2 7 2 10 12 6 9 -3
16 -11 16 -16z m-1007 -19 c9 -12 17 -33 17 -48 0 -15 5 -32 11 -38 17 -17
-34 -46 -82 -46 -47 0 -67 16 -85 70 -17 47 -17 53 -3 53 6 0 23 9 37 21 32
25 78 20 105 -12z m1238 21 c36 -20 17 -75 -32 -93 -37 -13 -54 50 -22 85 19
21 27 22 54 8z m-2466 -10 c3 -5 2 -10 -4 -10 -5 0 -13 5 -16 10 -3 6 -2 10 4
10 5 0 13 -4 16 -10z m962 -42 c13 -15 12 -18 -6 -28 -12 -6 -21 -17 -21 -25
0 -19 -16 -19 -24 0 -3 8 -15 15 -26 15 -21 0 -27 15 -10 25 6 4 8 15 5 26 -5
15 -1 19 19 19 14 0 28 6 33 13 5 8 9 6 11 -8 2 -11 11 -28 19 -37z m353 42
c0 -5 -4 -10 -10 -10 -5 0 -10 5 -10 10 0 6 5 10 10 10 6 0 10 -4 10 -10z
m895 0 c3 -5 3 -15 -1 -21 -6 -11 -23 6 -24 24 0 10 18 9 25 -3z m652 -5 c3
-9 2 -19 -2 -23 -4 -4 -10 -1 -12 6 -6 16 -183 17 -183 0 0 -6 -3 -9 -6 -5 -4
3 -4 13 -1 22 9 22 195 22 204 0z m-617 -9 c0 -3 -4 -8 -10 -11 -5 -3 -10 -1
-10 4 0 6 5 11 10 11 6 0 10 -2 10 -4z m92 -13 c22 -20 24 -61 2 -70 -19 -7
-64 12 -64 27 0 11 32 59 39 60 3 0 13 -7 23 -17z m-1531 -10 c13 -16 12 -17
-3 -4 -10 7 -18 15 -18 17 0 8 8 3 21 -13z m239 7 c0 -5 -4 -10 -10 -10 -5 0
-10 5 -10 10 0 6 5 10 10 10 6 0 10 -4 10 -10z m260 -6 c0 -2 -7 -4 -15 -4 -8
0 -15 4 -15 10 0 5 7 7 15 4 8 -4 15 -8 15 -10z m60 -6 c0 -16 -3 -19 -11 -11
-6 6 -8 16 -5 22 11 17 16 13 16 -11z m150 12 c8 -5 12 -11 10 -14 -8 -7 -60
6 -60 15 0 12 31 11 50 -1z m-788 -23 c11 -17 10 -35 -3 -42 -6 -5 -4 -12 7
-20 22 -16 12 -45 -17 -45 -17 0 -20 5 -17 24 4 19 1 24 -19 24 -27 0 -53 18
-53 38 0 37 81 53 102 21z m708 8 c-7 -8 -17 -12 -22 -9 -6 4 -5 10 3 15 22
14 33 10 19 -6z m130 5 c0 -5 -7 -10 -15 -10 -8 0 -15 5 -15 10 0 6 7 10 15
10 8 0 15 -4 15 -10z m87 -42 c-3 -10 -1 -21 5 -24 13 -8 -21 -44 -41 -44 -20
0 -54 37 -42 45 5 3 7 13 4 24 -3 12 3 24 18 35 21 14 24 14 42 -1 10 -10 16
-25 14 -35z m981 31 c4 -21 -24 -49 -49 -49 -28 0 -35 27 -13 51 21 23 57 22
62 -2z m-3503 1 c-3 -5 -12 -10 -18 -10 -7 0 -6 4 3 10 19 12 23 12 15 0z
m1660 -8 c-3 -3 -11 0 -18 7 -9 10 -8 11 6 5 10 -3 15 -9 12 -12z m2393 6 c-6
-18 -28 -21 -28 -4 0 9 7 16 16 16 9 0 14 -5 12 -12z m-3462 -25 c28 -30 26
-36 -9 -28 -29 8 -56 55 -31 55 8 0 26 -12 40 -27z m3002 -11 c3 -27 -1 -35
-17 -39 -12 -3 -21 -9 -21 -14 0 -5 -7 -9 -15 -9 -12 0 -15 11 -14 51 2 50 2
50 33 47 27 -3 31 -7 34 -36z m84 -6 l1 -41 4 43 c2 23 9 42 15 42 6 0 9 -16
6 -40 -2 -22 0 -40 4 -40 4 0 9 19 11 43 3 41 4 40 5 -10 2 -51 2 -52 -28 -51
-29 1 -30 3 -32 47 l-1 46 -6 -45 c-5 -37 -10 -46 -28 -48 -21 -3 -23 0 -23
47 l0 50 35 -1 c34 -1 35 -3 37 -42z m-3666 10 c0 -15 -5 -21 -10 -16 -5 5 -6
16 -3 24 9 23 15 19 13 -8z m1634 9 c11 -13 10 -14 -4 -9 -9 3 -16 10 -16 15
0 13 6 11 20 -6z m725 3 c9 -8 -44 -40 -55 -33 -14 9 -12 33 2 37 16 6 46 3
53 -4z m1019 -12 c-3 -9 3 -17 15 -21 12 -3 21 -10 21 -15 0 -5 8 -6 17 -3 14
6 13 1 -5 -24 -11 -16 -29 -36 -38 -44 -15 -12 -16 -12 -9 10 4 14 3 21 -2 18
-5 -3 -16 3 -23 13 -10 14 -17 16 -27 8 -24 -20 -14 13 15 47 27 32 46 37 36
11z m676 9 c-7 -9 -15 -13 -17 -11 -7 7 7 26 19 26 6 0 6 -6 -2 -15z m-4086
-11 c3 -8 2 -12 -4 -9 -6 3 -10 10 -10 16 0 14 7 11 14 -7z m714 -40 c-20 -20
-58 -10 -58 16 0 23 16 35 23 18 3 -7 6 -4 6 7 1 19 2 19 23 -3 21 -20 21 -23
6 -38z m127 46 c-3 -5 -11 -10 -16 -10 -6 0 -7 5 -4 10 3 6 11 10 16 10 6 0 7
-4 4 -10z m1798 -22 c17 -11 -19 -39 -40 -30 -21 8 -28 56 -7 48 8 -3 17 0 21
6 5 9 8 8 11 -2 3 -8 10 -18 15 -22z m-2486 10 c18 -24 22 -58 7 -73 -8 -7
-13 -19 -12 -26 2 -8 -12 -14 -39 -16 -35 -4 -42 -1 -47 16 -3 12 -9 30 -12
41 -4 14 -1 20 10 20 9 0 16 6 16 14 0 8 12 19 28 24 36 14 38 14 49 0z m1276
2 c7 0 -7 -10 -31 -21 -24 -12 -46 -18 -50 -15 -10 10 40 47 56 41 8 -3 19 -5
25 -5z m63 -8 c17 -12 25 -42 11 -42 -17 0 -37 20 -37 37 0 14 10 16 26 5z
m-686 -12 c0 -5 -7 -10 -15 -10 -8 0 -15 5 -15 10 0 6 7 10 15 10 8 0 15 -4
15 -10z m1500 -27 c12 -15 12 -16 0 -5 -22 19 -40 14 -40 -13 0 -33 35 -52 49
-28 9 15 10 14 11 -10 0 -21 -6 -30 -20 -34 -11 -3 -20 -9 -20 -14 0 -15 -20
-10 -51 12 -27 19 -30 26 -27 68 2 36 6 45 20 43 9 -1 19 2 23 8 8 12 36 -1
55 -27z m985 7 c-14 -16 -14 -18 0 -24 9 -3 13 -2 10 3 -3 5 -1 12 4 15 16 10
24 -14 11 -29 -16 -19 -20 -19 -50 4 l-24 19 24 20 c29 24 48 18 25 -8z
m-1576 -1 c13 -11 20 -23 16 -27 -4 -4 -10 -1 -12 6 -4 10 -8 10 -19 1 -19
-15 -39 2 -31 25 8 21 17 20 46 -5z m89 -20 c-2 -18 -9 -24 -28 -24 -20 0 -25
5 -25 25 0 18 5 25 18 24 9 -1 17 3 17 9 0 8 3 8 11 0 6 -6 9 -21 7 -34z m165
28 c9 -23 -5 -67 -24 -78 -27 -14 -59 6 -59 36 0 39 70 75 83 42z m729 -9 c-7
-7 -12 -8 -12 -2 0 14 12 26 19 19 2 -3 -1 -11 -7 -17z m-1862 2 c0 -5 -2 -10
-4 -10 -3 0 -8 5 -11 10 -3 6 -1 10 4 10 6 0 11 -4 11 -10z m615 -20 c0 -13
-6 -25 -12 -27 -16 -6 -27 21 -19 43 9 23 31 11 31 -16z m1289 -2 c16 -11 -6
-10 -23 1 -8 5 -10 14 -5 22 6 10 9 10 12 -1 3 -8 10 -18 16 -22z m-2246 -1
c23 -18 -9 -27 -35 -10 -18 12 -21 18 -12 24 13 8 22 5 47 -14z m2327 3 c0
-18 -33 -26 -47 -12 -6 6 -7 15 -3 22 10 16 50 8 50 -10z m-2400 0 c3 -6 -4
-10 -17 -10 -18 0 -20 2 -8 10 19 12 18 12 25 0z m879 0 c36 -13 53 -53 36
-84 -7 -13 -10 -30 -7 -38 3 -7 6 -4 6 9 1 12 6 25 11 28 17 10 11 -47 -9 -91
-34 -76 -135 -93 -186 -32 -52 61 -22 162 58 198 49 23 57 23 91 10z m1064 -8
c2 -7 -3 -12 -12 -12 -9 0 -16 7 -16 16 0 17 22 14 28 -4z m102 -7 c0 -16 -27
-28 -36 -14 -7 12 15 41 27 33 5 -3 9 -11 9 -19z m-2084 -4 c20 -16 21 -20 8
-25 -9 -3 -27 3 -40 13 -22 17 -21 24 4 30 2 1 15 -8 28 -18z m1024 -6 c11
-29 13 -30 45 -9 33 22 32 1 -1 -25 -35 -28 -45 -27 -79 9 -25 26 -27 32 -15
40 25 16 40 11 50 -15z m1183 4 c-6 -6 -17 -8 -24 -3 -9 5 -8 9 7 14 23 9 31
3 17 -11z m112 11 c3 -6 -1 -7 -9 -4 -19 7 -20 0 -6 -27 6 -10 8 -19 6 -19
-10 0 -27 41 -21 50 8 13 22 13 30 0z m805 -10 c0 -11 5 -20 11 -20 5 0 7 -4
4 -10 -3 -5 -15 -8 -25 -7 -22 4 -39 17 -22 17 7 0 12 9 12 20 0 11 5 20 10
20 6 0 10 -9 10 -20z m-1325 -35 l49 -45 -25 -77 -25 -78 -74 -8 -74 -8 -49
49 -49 49 23 73 c27 82 36 89 119 89 51 0 59 -3 105 -44z m-1710 15 c18 -19
17 -20 -2 -20 -11 0 -28 9 -38 20 -18 19 -17 20 2 20 11 0 28 -9 38 -20z
m1241 5 c-6 -18 2 -18 79 -4 45 8 60 8 66 -2 11 -18 2 -29 -24 -29 -22 -1 -22
-1 -3 -15 15 -12 17 -18 8 -27 -9 -9 -17 -7 -36 11 l-24 22 -20 -25 c-20 -26
-42 -34 -42 -17 0 6 5 13 10 16 19 11 10 22 -14 18 -26 -5 -46 15 -26 27 8 5
5 9 -10 13 -29 7 -16 27 17 27 18 0 24 -4 19 -15z m1196 -6 c-6 -25 -18 -29
-40 -13 -28 19 -20 34 16 29 17 -2 26 -8 24 -16z m739 1 c53 0 89 4 89 10 0 6
5 10 10 10 6 0 10 -9 10 -20 0 -19 -7 -20 -105 -20 -102 0 -105 1 -104 23 0
12 3 16 6 10 3 -9 32 -13 94 -13z m-3095 -9 c21 -17 22 -19 6 -23 -22 -6 -69
28 -50 35 7 3 15 6 16 6 2 1 15 -7 28 -18z m3354 -1 c0 -21 -16 -26 -39 -11
-11 7 -10 11 5 20 27 15 34 14 34 -9z m-3665 0 c3 -5 -1 -10 -10 -10 -9 0 -13
5 -10 10 3 6 8 10 10 10 2 0 7 -4 10 -10z m450 -31 c8 -26 -15 -52 -37 -44
-20 8 -33 38 -19 43 6 2 9 8 5 13 -3 5 -2 14 1 19 9 15 42 -6 50 -31z m1662
-11 c-2 -13 -4 -5 -4 17 -1 22 1 32 4 23 2 -10 2 -28 0 -40z m303 20 c0 -5 -5
-8 -11 -8 -5 0 -7 5 -4 10 3 6 1 10 -5 10 -6 0 -8 5 -4 11 6 11 23 -6 24 -23z
m1280 22 c0 -5 -4 -10 -10 -10 -5 0 -10 5 -10 10 0 6 5 10 10 10 6 0 10 -4 10
-10z m-3494 -17 c18 -11 22 -18 13 -24 -15 -9 -61 19 -53 32 7 12 11 12 40 -8z
m74 -7 c0 -9 -30 -14 -35 -6 -4 6 3 10 14 10 12 0 21 -2 21 -4z m1408 -22 c2
-13 -4 -24 -14 -28 -31 -12 -62 35 -31 47 23 10 42 2 45 -19z m1826 5 c37 -29
35 -74 -6 -116 -27 -28 -39 -33 -78 -33 -60 0 -90 21 -90 63 0 83 109 137 174
86z m-3508 3 c10 -6 12 -31 5 -63 0 -4 -14 -6 -30 -5 -16 0 -27 4 -25 8 3 5
-4 8 -15 8 -23 0 -24 1 -15 24 4 11 13 14 30 10 18 -5 24 -2 24 10 0 17 8 20
26 8z m2647 -7 c-3 -9 -8 -14 -10 -11 -3 3 -2 9 2 15 9 16 15 13 8 -4z m87 5
c0 -5 -5 -10 -11 -10 -5 0 -7 5 -4 10 3 6 8 10 11 10 2 0 4 -4 4 -10z m508 -2
c16 -16 15 -53 -3 -68 -29 -24 -63 25 -39 58 17 25 25 27 42 10z m82 -8 c9
-16 8 -18 -5 -14 -11 5 -13 2 -9 -10 4 -11 1 -16 -11 -16 -12 0 -15 5 -10 21
6 16 4 20 -6 13 -12 -6 -12 -5 0 9 18 22 28 21 41 -3z m-2107 4 c9 -10 -4 -34
-18 -34 -17 0 -28 17 -20 30 7 11 28 13 38 4z m2445 -3 c8 -5 12 -21 10 -37
-3 -26 -7 -29 -40 -32 l-38 -3 0 40 c0 38 2 41 28 41 15 0 33 -4 40 -9z
m-2794 -44 c-9 -24 -50 -32 -82 -17 l-27 13 30 7 c17 4 40 12 50 18 24 13 38
2 29 -21z m1901 23 c3 -5 1 -10 -4 -10 -6 0 -11 5 -11 10 0 6 2 10 4 10 3 0 8
-4 11 -10z m-2385 -10 c0 -5 7 -10 16 -10 9 0 14 -6 12 -12 -8 -23 -43 -15
-46 10 -2 12 1 22 7 22 6 0 11 -4 11 -10z m1680 -1 c0 -8 4 -8 14 0 11 9 16 9
21 0 6 -8 10 -7 16 2 8 12 10 12 18 0 6 -9 11 -10 15 -2 4 6 11 9 16 6 6 -4 4
-14 -3 -25 -9 -15 -23 -20 -60 -20 -27 0 -46 4 -42 9 3 5 1 12 -5 16 -13 8
-13 25 0 25 6 0 10 -5 10 -11z m390 -3 c0 -16 -18 -31 -27 -22 -8 8 5 36 17
36 5 0 10 -6 10 -14z m88 -7 c2 -9 -6 -14 -23 -14 -23 0 -33 14 -19 27 10 11
39 1 42 -13z m72 -5 c0 -16 -16 -19 -25 -4 -8 13 4 32 16 25 5 -4 9 -13 9 -21z
m-1015 -10 c-16 -26 -16 -26 12 -22 20 2 29 -2 31 -14 2 -13 -7 -18 -45 -23
-26 -4 -65 -11 -85 -15 -20 -4 -39 -5 -43 -2 -12 13 -4 32 15 32 24 0 26 13 5
30 -13 11 -13 15 -3 21 8 5 22 0 36 -14 l24 -22 20 28 c11 15 27 27 35 27 13
0 13 -3 -2 -26z m421 7 c-4 -5 0 -11 6 -14 10 -4 11 -7 1 -18 -11 -11 -13 -11
-13 0 0 8 -6 11 -15 7 -10 -4 -15 1 -15 14 0 14 7 20 21 20 11 0 18 -4 15 -9z
m-1247 -33 l21 -33 -28 -22 c-36 -30 -46 -29 -73 9 l-23 31 30 23 c38 31 48
30 73 -8z m2055 1 c-9 -10 -24 -19 -32 -19 -12 0 -10 6 8 25 26 28 50 23 24
-6z m-2804 11 c0 -5 -5 -10 -11 -10 -5 0 -7 5 -4 10 3 6 8 10 11 10 2 0 4 -4
4 -10z m3280 -22 c0 -6 -7 -5 -15 2 -8 7 -15 17 -15 22 0 6 7 5 15 -2 8 -7 15
-17 15 -22z m-40 9 c0 -7 -6 -19 -12 -27 -11 -12 -10 -12 5 -1 24 19 35 5 13
-17 -16 -16 -18 -16 -31 2 -10 13 -11 24 -4 37 11 22 29 25 29 6z m-3290 -7
c0 -5 -5 -10 -11 -10 -5 0 -7 5 -4 10 3 6 8 10 11 10 2 0 4 -4 4 -10z m2470
-15 c0 -16 -6 -25 -15 -25 -9 0 -15 9 -15 25 0 16 6 25 15 25 9 0 15 -9 15
-25z m100 0 c0 -20 -5 -25 -25 -25 -19 0 -25 5 -25 23 0 17 6 23 25 25 21 1
25 -3 25 -23z m80 0 c0 -16 -6 -25 -15 -25 -9 0 -15 9 -15 25 0 16 6 25 15 25
9 0 15 -9 15 -25z m124 -26 c9 -23 14 -44 10 -48 -4 -3 -9 0 -11 6 -3 10 -9 9
-20 -3 -9 -8 -22 -13 -30 -9 -11 3 -13 1 -9 -10 11 -31 -11 -14 -27 20 -21 43
-22 62 -4 48 16 -13 65 7 60 25 -3 6 0 12 5 12 5 0 17 -19 26 -41z m799 -4
c-15 -19 -30 -30 -32 -23 -2 6 8 22 23 35 38 33 41 29 9 -12z m-3513 21 c0 -2
-7 -7 -16 -10 -8 -3 -12 -2 -9 4 6 10 25 14 25 6z m2057 -10 c-3 -8 2 -16 14
-19 25 -7 25 -27 -1 -27 -25 0 -44 32 -28 48 16 16 21 15 15 -2z m775 -8 c-6
-6 -21 -7 -33 -3 -23 8 -23 8 -4 15 26 9 50 1 37 -12z m63 0 c4 -13 6 -27 6
-32 -1 -5 7 -6 17 -4 22 6 59 -17 42 -27 -5 -3 -7 -11 -4 -17 4 -6 1 -9 -7 -6
-8 3 -22 1 -32 -4 -16 -8 -18 -7 -12 11 4 13 -1 27 -14 40 -21 21 -29 61 -12
61 5 0 12 -10 16 -22z m-2029 -33 c6 -20 7 -38 3 -41 -5 -3 -9 3 -9 13 0 14
-2 15 -9 4 -13 -20 -24 4 -17 35 9 34 19 30 32 -11z m791 -1 c3 -24 -1 -33
-19 -40 -32 -14 -58 -6 -58 17 0 12 7 19 20 19 14 0 20 7 20 21 0 34 33 19 37
-17z m1622 17 c20 -20 22 -52 4 -58 -6 -2 -10 9 -10 24 0 15 -6 29 -12 31 -11
4 -16 22 -6 22 3 0 14 -9 24 -19z m-2664 -11 c10 16 25 12 25 -7 0 -9 7 -24
16 -34 14 -16 14 -18 -4 -23 -10 -4 -24 -16 -29 -29 l-10 -22 -12 23 c-6 12
-21 22 -32 22 -17 0 -18 3 -9 21 7 11 9 27 6 34 -7 19 4 26 25 15 12 -7 20 -7
24 0z m435 -5 c0 -21 -39 -40 -54 -25 -8 8 -6 15 8 26 25 18 46 18 46 -1z
m436 -41 c-20 -19 -43 -8 -43 21 0 17 6 25 21 27 27 4 42 -28 22 -48z m-706
35 c0 -5 -4 -9 -10 -9 -5 0 -10 -4 -10 -10 0 -5 7 -7 15 -4 19 8 19 -3 0 -23
-18 -17 -17 -18 -33 20 -15 36 -16 35 13 35 14 0 25 -4 25 -9z m1644 -5 c4
-11 1 -14 -11 -12 -9 2 -18 9 -21 16 -6 18 25 15 32 -4z m86 1 c0 -9 -9 -15
-25 -15 -16 0 -25 6 -25 15 0 9 9 15 25 15 16 0 25 -6 25 -15z m68 3 c-3 -7
-12 -14 -21 -16 -12 -2 -15 1 -11 12 7 19 38 22 32 4z m-1395 -41 c8 -51 -39
-87 -71 -55 -20 20 -14 55 14 77 32 25 51 18 57 -22z m2082 34 c3 -5 1 -12 -5
-16 -5 -3 -10 1 -10 9 0 18 6 21 15 7z m160 -13 c7 -7 2 -9 -15 -4 -14 3 -31
6 -38 6 -7 0 -10 5 -7 10 7 12 44 4 60 -12z m-3265 -11 c0 -29 -7 -37 -26 -30
-14 5 -19 35 -7 46 14 15 33 6 33 -16z m925 13 c3 -5 1 -10 -4 -10 -6 0 -11 5
-11 10 0 6 2 10 4 10 3 0 8 -4 11 -10z m932 -6 c12 -11 13 -18 4 -27 -15 -15
-14 -27 4 -27 8 0 15 -7 15 -15 0 -14 -4 -16 -29 -19 -5 -1 -21 16 -36 38 -20
30 -23 41 -14 52 15 18 37 18 56 -2z m-1280 -20 c-9 -9 -28 6 -21 18 4 6 10 6
17 -1 6 -6 8 -13 4 -17z m329 -19 c-3 -9 -14 -15 -23 -13 -22 4 -30 38 -11 49
18 11 43 -15 34 -36z m828 16 c32 -33 18 -55 -15 -25 -17 16 -22 16 -29 4 -6
-8 -10 -19 -10 -25 0 -5 4 -5 8 2 5 8 13 9 22 3 13 -8 13 -11 0 -24 -13 -13
-18 -13 -40 4 -23 17 -23 20 -9 37 9 10 19 26 22 36 9 24 19 22 51 -12z m862
12 c-1 -12 7 -19 23 -21 19 -3 22 0 17 14 -5 14 -4 15 9 4 9 -7 14 -24 12 -39
-3 -22 -9 -26 -38 -29 -48 -4 -77 27 -61 63 13 29 40 34 38 8z m-2518 -12 c5
-1 -47 -51 -53 -51 -9 0 -5 36 6 47 9 9 22 10 47 4z m772 -12 c0 -6 -4 -7 -10
-4 -5 3 -10 11 -10 16 0 6 5 7 10 4 6 -3 10 -11 10 -16z m1100 -34 c0 -42 -3
-55 -15 -55 -11 0 -15 12 -15 48 0 27 3 52 7 55 16 17 23 3 23 -48z m-1160 35
c0 -5 -4 -10 -10 -10 -5 0 -10 5 -10 10 0 6 5 10 10 10 6 0 10 -4 10 -10z
m1935 0 c3 -5 1 -10 -4 -10 -6 0 -11 5 -11 10 0 6 2 10 4 10 3 0 8 -4 11 -10z
m-2066 -31 c-16 -22 -24 -27 -30 -18 -11 19 8 49 32 49 20 0 20 0 -2 -31z
m768 14 c10 -10 12 -13 4 -8 -12 9 -12 7 -2 -12 6 -13 16 -23 22 -23 13 0 -2
-27 -34 -62 -20 -21 -34 -27 -64 -26 -48 1 -74 14 -67 33 4 9 1 22 -6 30 -10
12 -10 19 1 33 19 24 42 41 54 41 6 0 2 -4 -7 -10 -26 -14 -23 -49 3 -49 53 0
79 43 37 60 -21 8 -20 9 8 9 18 1 40 -7 51 -16z m73 7 c0 -5 -5 -10 -11 -10
-5 0 -7 5 -4 10 3 6 8 10 11 10 2 0 4 -4 4 -10z m1043 -84 c-3 -5 -10 -1 -15
8 -5 9 -14 16 -20 16 -7 0 -6 -5 2 -15 15 -18 1 -19 -22 -2 -17 13 -21 27 -19
64 1 20 5 18 40 -20 22 -23 37 -46 34 -51z m650 80 c15 -12 16 -18 8 -34 -6
-11 -16 -22 -23 -25 -11 -3 -42 7 -56 18 -1 1 2 14 7 29 12 29 36 33 64 12z
m-3117 -24 c-8 -9 -19 -13 -22 -9 -10 9 16 38 28 31 6 -4 4 -13 -6 -22z m2369
18 c3 -5 -1 -10 -9 -10 -9 0 -16 5 -16 10 0 6 4 10 9 10 6 0 13 -4 16 -10z
m413 -6 c27 -19 29 -50 3 -64 -30 -15 -56 -12 -76 10 -17 18 -17 21 -1 45 19
29 42 32 74 9z m-2483 -14 c0 -8 -10 -16 -22 -18 -29 -4 -30 -19 -2 -18 12 1
24 -5 27 -13 3 -10 -1 -12 -17 -8 -12 3 -21 0 -21 -6 -1 -17 -30 24 -30 41 0
19 30 42 50 39 8 -1 15 -9 15 -17z m1918 -22 c-6 -57 -10 -68 -23 -68 -7 0 -9
9 -6 23 3 12 3 16 0 10 -10 -22 -24 -14 -24 12 0 24 31 65 49 65 5 0 7 -19 4
-42z m87 27 c-11 -13 -10 -18 6 -30 10 -8 24 -14 29 -14 6 0 4 3 -2 6 -7 2
-13 14 -13 26 0 21 0 21 21 -2 17 -18 18 -25 9 -36 -17 -20 -49 -19 -57 3 -4
9 -11 20 -17 24 -11 7 10 38 26 38 6 0 5 -7 -2 -15z m382 -7 c-7 -7 -12 -8
-12 -2 0 14 12 26 19 19 2 -3 -1 -11 -7 -17z m-2349 -10 c8 -28 -4 -47 -14
-22 -11 27 -11 44 0 44 5 0 11 -10 14 -22z m140 -10 c4 -10 7 -10 18 -1 9 9
16 10 26 1 11 -9 11 -14 -3 -29 -10 -11 -22 -19 -29 -19 -18 0 -48 37 -40 49
8 15 22 14 28 -1z m1107 -27 c37 -27 35 -86 -3 -115 -56 -42 -159 -17 -173 41
-20 80 100 131 176 74z m1045 -8 c12 -29 13 -38 3 -44 -13 -8 -47 41 -48 69 0
27 31 10 45 -25z m-1995 7 c-11 -20 -59 -50 -81 -50 -17 0 9 29 46 52 39 23
48 23 35 -2z m1045 10 c4 -6 -6 -10 -22 -10 -22 0 -25 2 -13 10 19 12 27 12
35 0z m-1267 -12 c7 -7 12 -21 12 -33 0 -46 -53 -62 -71 -21 -21 45 26 87 59
54z m337 -23 c47 -46 19 -118 -45 -118 -66 0 -95 82 -44 122 35 27 59 26 89
-4z m93 2 c-3 -30 -33 -30 -36 0 -1 17 4 23 18 23 14 0 19 -6 18 -23z m1745
-4 c6 -32 1 -43 -17 -43 -15 0 -39 47 -31 61 13 20 43 9 48 -18z m277 -8 l34
-35 -34 -35 c-19 -19 -39 -35 -44 -35 -6 0 -26 18 -43 39 l-33 39 38 31 c20
17 39 30 43 31 3 0 20 -16 39 -35z m-990 -10 c0 -16 -6 -25 -15 -25 -9 0 -15
9 -15 25 0 16 6 25 15 25 9 0 15 -9 15 -25z m522 6 c-1 -7 4 -22 13 -34 10
-14 15 -45 15 -88 0 -77 13 -95 61 -85 22 4 29 2 27 -7 -3 -6 -15 -13 -27 -15
-17 -3 -20 -6 -11 -17 9 -11 4 -15 -25 -21 -29 -5 -41 -2 -58 14 -20 18 -24
19 -41 6 -28 -20 -63 -17 -86 6 -30 30 -25 39 23 37 l42 -2 5 70 c5 71 37 157
55 151 6 -2 9 -9 7 -15z m-2153 -17 c36 -46 23 -94 -25 -94 -46 0 -69 54 -44
101 15 27 45 24 69 -7z m71 16 c0 -5 -9 -10 -21 -10 -11 0 -17 5 -14 10 3 6
13 10 21 10 8 0 14 -4 14 -10z m2190 0 c16 -9 17 -15 8 -40 -5 -17 -14 -30
-20 -30 -8 0 -46 17 -56 25 -1 1 3 14 9 29 13 28 29 32 59 16z m-197 -16 c19
-7 22 -20 8 -28 -5 -3 -7 -14 -5 -24 4 -13 -2 -17 -26 -18 -16 -1 -30 3 -30 9
0 6 -7 19 -17 29 -15 17 -15 18 1 18 9 0 19 7 23 15 3 9 11 13 17 10 6 -3 19
-8 29 -11z m417 -38 c7 -34 7 -35 -22 -34 -28 1 -53 18 -25 18 8 0 17 14 21
32 7 37 15 33 26 -16z m-2220 24 c0 -5 -4 -10 -10 -10 -5 0 -10 5 -10 10 0 6
5 10 10 10 6 0 10 -4 10 -10z m858 -19 c23 -19 29 -41 12 -41 -5 0 -10 3 -10
8 0 4 -14 7 -30 8 -17 1 -30 -3 -30 -7 0 -5 14 -9 30 -9 20 0 30 -5 30 -15 0
-27 -49 -18 -62 11 -11 23 -10 29 11 45 28 23 23 23 49 0z m-100 -19 c0 -9 2
-24 6 -32 3 -8 2 -21 -3 -28 -7 -12 -12 -12 -30 -1 -25 16 -27 36 -5 67 17 24
33 22 32 -6z m530 1 c2 -13 -1 -23 -7 -23 -6 0 -11 -7 -11 -15 0 -18 -33 -20
-48 -2 -13 15 -11 28 8 50 20 24 54 18 58 -10z m-1329 4 c52 -26 44 -87 -14
-111 -31 -13 -39 -13 -70 0 -61 25 -67 86 -11 110 39 17 64 17 95 1z m168 -39
c40 -39 51 -77 27 -95 -27 -20 -41 -16 -84 23 -45 41 -59 76 -39 100 17 21 56
10 96 -28z m2019 30 c3 -4 -3 -8 -13 -8 -15 0 -16 -2 -3 -10 12 -8 10 -10 -10
-10 -14 0 -30 9 -37 20 -12 18 -10 19 23 18 19 -1 37 -5 40 -10z m-766 -18
c35 -35 20 -80 -25 -80 -40 0 -74 59 -49 85 21 21 50 19 74 -5z m-683 -12 c-3
-8 -6 -5 -6 6 -1 11 2 17 5 13 3 -3 4 -12 1 -19z m-420 -25 c-8 -15 -24 -37
-36 -47 -35 -32 -27 7 10 49 36 41 47 40 26 -2z m1710 18 c3 -11 11 -17 18
-15 17 7 41 -34 27 -48 -6 -6 -15 -2 -26 13 -12 18 -18 21 -28 11 -7 -7 -15
-12 -20 -12 -13 0 -28 38 -22 54 9 23 45 20 51 -3z m97 -1 c11 -11 -7 -63 -25
-69 -12 -4 -12 -2 0 12 12 15 11 17 -4 17 -13 0 -16 6 -13 24 4 17 1 23 -9 19
-7 -3 -13 0 -13 7 0 13 48 6 64 -10z m-344 -20 c13 -24 3 -50 -19 -50 -35 0
-54 43 -30 67 14 14 37 6 49 -17z m633 11 c3 -15 1 -18 -11 -14 -10 4 -13 2
-8 -5 4 -7 1 -12 -9 -12 -12 0 -15 5 -11 16 3 9 6 20 6 25 0 17 28 9 33 -10z
m-1412 -11 c13 -10 21 -19 17 -20 -14 0 -58 23 -58 32 0 14 16 9 41 -12z m139
15 c0 -2 -13 -11 -30 -20 -31 -16 -43 -3 -12 14 18 11 42 14 42 6z m100 -10
c7 -9 19 -14 27 -11 23 9 13 -18 -14 -38 -22 -16 -25 -17 -20 -4 3 9 -1 22 -9
28 -15 14 -19 40 -5 40 5 0 14 -7 21 -15z m1042 -2 c13 -12 18 -31 18 -75 l0
-59 -72 3 -73 3 1 59 c1 45 5 62 19 72 26 19 85 17 107 -3z m-1460 -15 c-7 -7
-12 -8 -12 -2 0 14 12 26 19 19 2 -3 -1 -11 -7 -17z m-1023 8 c-10 -10 -79
-24 -79 -16 0 8 22 14 69 19 8 0 12 -1 10 -3z m966 -6 c3 -5 2 -10 -4 -10 -5
0 -13 5 -16 10 -3 6 -2 10 4 10 5 0 13 -4 16 -10z m945 6 c0 -3 -4 -8 -10 -11
-5 -3 -10 -1 -10 4 0 6 5 11 10 11 6 0 10 -2 10 -4z m700 -36 c3 0 -1 -4 -9
-9 -7 -5 -13 -20 -13 -33 0 -21 -4 -24 -30 -20 -24 4 -28 8 -22 26 4 11 7 28
6 38 0 14 4 15 31 7 18 -5 34 -9 37 -9z m-1410 -15 c0 6 7 2 15 -9 11 -14 12
-24 4 -38 -10 -18 -12 -17 -28 14 -17 32 -17 63 0 37 5 -8 9 -9 9 -4z m370 4
c0 -5 -4 -7 -10 -4 -6 3 -7 -1 -4 -9 4 -11 0 -16 -14 -16 -51 0 -70 26 -24 33
49 7 52 7 52 -4z m-1600 -32 c0 -5 -4 -5 -10 -2 -5 3 -10 14 -10 23 0 15 2 15
10 2 5 -8 10 -19 10 -23z m30 12 c0 -5 -4 -9 -10 -9 -5 0 -10 7 -10 16 0 8 5
12 10 9 6 -3 10 -10 10 -16z m555 -18 c-8 -17 -20 -31 -26 -31 -6 0 -8 4 -4 9
3 5 1 12 -5 16 -13 8 -13 25 1 25 5 0 7 -4 4 -10 -3 -6 1 -7 9 -4 9 3 14 10
11 14 -5 8 16 21 23 15 2 -2 -4 -17 -13 -34z m750 19 c3 -4 -2 -11 -10 -14 -9
-3 -18 1 -21 9 -4 8 -11 12 -17 8 -5 -3 -7 -1 -4 5 7 11 44 5 52 -8z m625 10
c0 -5 -2 -10 -4 -10 -3 0 -8 5 -11 10 -3 6 -1 10 4 10 6 0 11 -4 11 -10z
m-1815 -16 c9 -9 14 -18 11 -21 -6 -6 -46 20 -46 29 0 13 18 9 35 -8z m105 8
c0 -9 -40 -35 -46 -29 -6 6 25 37 37 37 5 0 9 -3 9 -8z m1271 -19 c35 -15 37
-19 35 -51 -2 -20 -12 -41 -22 -49 -24 -17 -39 -17 -24 2 16 20 4 35 -29 35
-37 0 -44 -10 -24 -32 19 -21 14 -23 -22 -6 -16 7 -24 17 -20 26 3 8 0 21 -6
29 -14 16 -6 27 33 48 31 18 36 17 79 -2z m834 -21 c-3 -9 0 -19 7 -23 7 -4 9
-11 5 -16 -5 -4 -12 -1 -18 7 -8 13 -10 13 -19 0 -8 -13 -11 -13 -26 2 -17 17
-13 48 6 48 7 0 9 -8 5 -21 -6 -18 -5 -19 14 -7 13 8 17 16 11 22 -16 16 -11
30 5 16 9 -7 13 -20 10 -28z m-1628 3 c18 -19 17 -20 -24 -28 -28 -6 -33 -4
-33 13 0 22 16 27 23 8 3 -8 6 -6 6 5 1 21 8 22 28 2z m263 -10 c0 -20 -5 -25
-25 -25 -20 0 -25 5 -25 25 0 20 5 25 25 25 20 0 25 -5 25 -25z m90 15 c0 -5
-4 -10 -10 -10 -5 0 -10 5 -10 10 0 6 5 10 10 10 6 0 10 -4 10 -10z m220 2 c0
-4 9 -8 19 -8 11 0 17 4 15 8 -3 4 2 8 10 8 18 0 19 -4 10 -37 -7 -26 -24 -31
-24 -8 0 8 -4 15 -10 15 -5 0 -10 -7 -10 -15 0 -15 -20 -22 -20 -7 0 4 -3 17
-6 30 -4 13 -2 22 5 22 6 0 11 -4 11 -8z m360 -52 c28 -15 25 -40 -3 -40 -44
0 -61 37 -47 100 0 3 7 -7 16 -22 8 -15 23 -32 34 -38z m-1311 34 l22 -16 -22
-24 c-28 -30 -37 -30 -51 1 -8 19 -8 28 2 40 16 19 20 19 49 -1z m191 1 c0 -8
-4 -15 -10 -15 -5 0 -7 7 -4 15 4 8 8 15 10 15 2 0 4 -7 4 -15z m630 -5 c0 -5
-2 -10 -4 -10 -3 0 -8 5 -11 10 -3 6 -1 10 4 10 6 0 11 -4 11 -10z m783 -19
c12 -12 -2 -59 -19 -65 -8 -3 -14 -1 -14 4 0 6 6 10 12 10 7 0 2 7 -10 16 -12
8 -19 20 -16 26 4 6 0 15 -7 20 -10 7 -5 8 16 3 17 -3 34 -10 38 -14z m-1873
-2 c0 -3 -9 -14 -21 -25 -19 -17 -19 -19 -2 -25 10 -3 -1 -6 -27 -6 -26 0 -37
3 -27 6 17 6 17 8 -2 25 -31 28 -26 33 29 32 27 -1 50 -4 50 -7z m640 -9 c0
-5 -4 -10 -10 -10 -5 0 -10 5 -10 10 0 6 5 10 10 10 6 0 10 -4 10 -10z m1190
-42 c0 -16 -30 -7 -39 10 -7 13 -6 23 2 31 8 8 14 6 24 -11 7 -13 12 -26 13
-30z m200 42 c0 -5 -4 -10 -10 -10 -5 0 -10 5 -10 10 0 6 5 10 10 10 6 0 10
-4 10 -10z m-1827 -21 c-8 -29 -51 -44 -80 -28 -29 16 -29 29 0 29 12 0 29 5
37 10 27 18 49 12 43 -11z m1902 -1 c31 -14 33 -30 2 -23 -17 5 -24 2 -24 -8
0 -9 6 -13 15 -9 10 3 13 0 10 -9 -4 -11 -35 -15 -46 -5 -3 4 10 66 14 66 2 0
15 -5 29 -12z m-442 -12 c20 -16 23 -36 4 -36 -17 0 -37 20 -37 37 0 16 10 16
33 -1z m-1019 -2 c33 -13 12 -74 -25 -74 -25 0 -32 29 -14 56 17 27 17 26 39
18z m276 -7 c10 3 21 0 24 -6 4 -6 0 -11 -8 -11 -9 0 -16 -9 -16 -20 0 -10 -5
-31 -12 -45 -14 -31 -28 -16 -28 33 0 23 -5 32 -16 32 -13 0 -14 3 -4 15 8 10
18 12 28 6 8 -5 23 -6 32 -4z m600 -31 c0 -27 -27 -39 -54 -24 -21 12 -21 44
1 57 25 13 53 -4 53 -33z m-290 -86 l0 -120 -120 0 -120 0 0 113 c0 63 3 117
7 120 3 4 57 7 120 7 l113 0 0 -120z m93 107 c4 -10 -4 -14 -24 -14 -16 0 -29
3 -29 7 0 22 45 28 53 7z m-633 -13 c0 -8 -5 -12 -10 -9 -6 4 -8 11 -5 16 9
14 15 11 15 -7z m115 -30 c0 -13 -7 -19 -24 -19 -32 0 -49 28 -31 49 11 14 16
15 34 3 12 -8 21 -23 21 -33z m991 30 c19 -15 19 -15 0 -9 -11 3 -23 1 -26 -6
-4 -6 -16 -9 -26 -6 -17 4 -17 6 3 12 13 4 20 11 17 16 -9 15 11 10 32 -7z
m219 -15 c-8 -12 -45 2 -45 17 0 11 5 11 25 2 13 -6 22 -14 20 -19z m479 23
c2 -4 1 -14 -3 -20 -10 -17 -41 -4 -34 14 6 15 29 19 37 6z m-2392 -19 c25
-23 23 -50 -7 -69 -23 -15 -27 -15 -50 0 -29 19 -32 42 -8 68 20 22 41 23 65
1z m169 -3 c5 0 9 -4 9 -9 0 -11 -46 -20 -72 -13 -20 5 -20 6 3 18 13 7 30 11
37 9 8 -3 18 -5 23 -5z m1039 0 c0 -5 -4 -10 -10 -10 -5 0 -10 5 -10 10 0 6 5
10 10 10 6 0 10 -4 10 -10z m95 0 c4 -6 -7 -10 -24 -10 -17 0 -31 5 -31 10 0
6 11 10 24 10 14 0 28 -4 31 -10z m190 0 c3 -5 -3 -10 -14 -10 -11 0 -23 5
-26 10 -3 6 3 10 14 10 11 0 23 -4 26 -10z m790 -20 c-3 -5 -1 -10 5 -10 6 0
8 -5 4 -11 -4 -8 -9 -7 -15 2 -12 19 -11 29 2 29 5 0 7 -4 4 -10z m-2389 -58
c-12 -12 -18 8 -10 35 l8 28 4 -28 c2 -16 1 -31 -2 -35z m666 36 c-7 -7 -12
-8 -12 -2 0 14 12 26 19 19 2 -3 -1 -11 -7 -17z m707 -14 c4 -28 4 -28 10 -5
10 37 31 38 28 3 -2 -25 -7 -31 -30 -35 -23 -3 -31 1 -38 21 -6 14 -7 32 -4
40 8 22 30 8 34 -24z m311 16 c14 -10 21 -22 17 -26 -4 -4 -2 -13 4 -21 9 -10
7 -19 -5 -38 -18 -28 -25 -30 -59 -14 -18 8 -23 19 -24 47 -1 33 19 72 36 72
3 0 17 -9 31 -20z m295 -1 c-3 -5 0 -6 8 -3 10 3 17 -4 21 -21 6 -23 8 -24 21
-11 8 8 15 19 15 25 0 6 7 8 15 5 11 -5 13 -2 9 10 -8 22 1 20 36 -6 35 -25
38 -43 11 -60 -10 -6 -17 -17 -14 -25 7 -18 -27 -29 -37 -12 -7 11 -14 9 -33
-9 -29 -27 -36 -27 -45 -3 -4 11 -22 30 -41 43 -46 31 -48 44 -10 67 31 19 55
19 44 0z m354 -1 c-7 -13 -15 -29 -19 -37 -9 -20 -22 -23 -40 -10 -11 8 -12
12 -2 16 6 2 12 9 12 14 0 6 -4 7 -10 4 -5 -3 -10 -1 -10 4 0 10 17 15 48 14
6 -1 12 3 12 8 0 5 5 9 10 9 6 0 6 -8 -1 -22z m101 12 c0 -5 -4 -10 -10 -10
-5 0 -10 5 -10 10 0 6 5 10 10 10 6 0 10 -4 10 -10z m-2270 -31 c0 -10 -4 -19
-10 -19 -5 0 -10 12 -10 26 0 14 4 23 10 19 6 -3 10 -15 10 -26z m456 0 c24
-16 42 -35 38 -40 -3 -6 -12 -5 -22 3 -13 11 -14 11 -10 -2 3 -8 -5 -23 -16
-34 -15 -13 -17 -20 -8 -23 14 -6 16 -23 2 -23 -16 0 -90 51 -90 62 0 5 10 6
21 3 15 -5 19 -4 14 4 -4 7 3 20 15 31 13 11 17 21 10 25 -11 7 -14 25 -4 25
3 0 25 -14 50 -31z m674 21 c-8 -5 -22 -9 -30 -9 -10 0 -8 3 5 9 27 12 43 12
25 0z m163 4 c9 -9 -4 -35 -14 -28 -5 3 -9 12 -9 20 0 14 12 19 23 8z m361
-17 c12 -9 17 -23 14 -47 -4 -42 -41 -61 -83 -42 -35 16 -37 78 -2 92 32 13
51 12 71 -3z m-515 -28 c-19 -12 -29 -11 -29 2 0 5 5 7 10 4 6 -3 10 -1 10 5
0 6 5 8 11 4 8 -4 7 -9 -2 -15z m-560 -16 c46 -9 74 -37 29 -30 -12 2 -17 2
-10 0 24 -8 1 -23 -26 -17 -33 8 -54 23 -47 34 3 5 1 11 -5 15 -5 3 -10 11
-10 17 0 7 4 7 13 0 6 -5 32 -14 56 -19z m845 -6 c28 -38 28 -126 0 -164 -24
-32 -81 -48 -118 -33 -34 13 -56 59 -56 119 0 39 6 56 26 81 24 28 31 31 77
28 41 -2 54 -8 71 -31z m-683 6 c23 -14 27 -22 22 -42 -13 -59 -66 -72 -108
-27 l-25 27 29 30 c34 34 43 35 82 12z m1514 -3 c-10 -11 -22 -17 -27 -14 -12
8 11 34 30 34 13 0 12 -3 -3 -20z m-2310 -2 c46 -21 20 -58 -42 -58 -51 0 -71
38 -30 58 29 14 41 14 72 0z m1815 -9 c0 -23 -22 -49 -41 -49 -22 0 -34 22
-25 45 6 17 66 21 66 4z m-1690 -7 c0 -8 -43 -32 -56 -32 -16 0 6 25 27 31 13
4 25 7 27 8 1 1 2 -3 2 -7z m2047 -9 c4 -10 -37 -26 -45 -18 -3 3 1 12 8 20
14 17 31 16 37 -2z m-987 -13 c0 -5 -5 -10 -11 -10 -5 0 -7 5 -4 10 3 6 8 10
11 10 2 0 4 -4 4 -10z m100 -1 c0 -5 -4 -8 -9 -4 -5 3 -11 -5 -14 -17 -3 -21
-4 -21 -12 -4 -5 12 -3 21 6 27 19 12 29 11 29 -2z m570 -5 c0 -8 -4 -12 -10
-9 -5 3 -10 10 -10 16 0 5 5 9 10 9 6 0 10 -7 10 -16z m194 10 c23 -9 20 -31
-6 -37 -30 -8 -36 0 -12 18 19 15 19 15 0 8 -13 -4 -17 -3 -12 5 8 14 9 14 30
6z m-1734 -34 c0 -26 -16 -33 -41 -20 -19 11 -20 13 -4 30 20 22 45 16 45 -10z
m906 1 c-1 -3 -6 -15 -10 -26 -7 -18 -8 -18 -20 5 -16 30 -2 57 20 39 8 -6 12
-14 10 -18z m966 7 c-7 -7 -12 -8 -12 -2 0 14 12 26 19 19 2 -3 -1 -11 -7 -17z
m-2056 0 c5 -8 2 -9 -9 -5 -9 3 -16 3 -14 -1 1 -4 -2 -8 -8 -10 -5 -2 -11 4
-13 12 -4 19 33 22 44 4z m1824 -2 c0 -8 -4 -17 -9 -21 -12 -7 -24 12 -16 25
9 15 25 12 25 -4z m-1907 -13 c-7 -3 -10 -10 -8 -16 7 -19 -11 -40 -29 -34
-23 9 -20 38 4 44 11 3 20 10 20 15 0 5 5 6 12 2 9 -6 9 -9 1 -11z m172 -3
c17 -19 17 -22 2 -37 -15 -15 -18 -15 -41 1 -25 16 -33 36 -19 49 13 13 40 7
58 -13z m955 0 c9 -16 8 -20 -5 -20 -8 0 -15 2 -15 4 0 2 -3 11 -6 20 -9 23
13 20 26 -4z m110 -6 c0 -14 -4 -23 -9 -20 -5 3 -7 15 -4 26 7 28 13 25 13 -6z
m318 11 c7 -6 -11 -55 -20 -55 -5 0 -7 4 -3 9 3 5 0 13 -6 16 -5 4 -8 13 -5
20 3 8 0 16 -7 19 -7 3 -1 3 13 0 14 -4 26 -8 28 -9z m502 5 c0 -5 -4 -10 -10
-10 -5 0 -10 5 -10 10 0 6 5 10 10 10 6 0 10 -4 10 -10z m50 0 c0 -5 -9 -10
-20 -10 -11 0 -20 5 -20 10 0 6 9 10 20 10 11 0 20 -4 20 -10z m-1705 -14 c45
-19 76 -70 73 -119 -1 -24 3 -41 12 -47 39 -24 -72 -76 -147 -67 -57 6 -103
49 -103 97 0 16 -4 32 -10 35 -5 3 -10 18 -10 32 0 18 4 24 15 19 8 -3 19 2
24 13 11 20 67 50 94 51 10 0 33 -6 52 -14z m121 -21 c2 -13 -2 -13 -27 2 -25
15 -27 19 -12 24 20 7 36 -3 39 -26z m1114 25 c-8 -5 -19 -10 -25 -10 -5 0 -3
5 5 10 8 5 20 10 25 10 6 0 3 -5 -5 -10z m-126 -16 c11 -27 7 -37 -9 -24 -16
14 -20 40 -6 40 5 0 12 -7 15 -16z m-1480 -31 c-15 -24 -34 -28 -34 -6 0 26
21 46 34 33 7 -7 7 -16 0 -27z m1996 27 c0 -5 7 -10 16 -10 9 0 14 -6 12 -12
-8 -23 -43 -15 -46 10 -2 12 1 22 7 22 6 0 11 -4 11 -10z m-367 -15 c-3 -9 -8
-14 -10 -11 -3 3 -2 9 2 15 9 16 15 13 8 -4z m204 -32 c-3 -10 -5 -2 -5 17 0
19 2 27 5 18 2 -10 2 -26 0 -35z m275 29 c9 -9 8 -12 -4 -12 -8 0 -21 6 -27
14 -10 11 -9 14 4 12 8 -1 21 -8 27 -14z m-2072 -11 c-5 -11 -15 -32 -20 -47
-6 -15 -13 -25 -15 -22 -7 7 27 88 37 88 5 0 4 -9 -2 -19z m435 10 c10 -17
-12 -21 -25 -6 -10 12 -10 15 3 15 9 0 18 -4 22 -9z m92 -11 c23 -18 23 -20 6
-20 -19 0 -43 17 -43 32 0 13 10 9 37 -12z m1243 -6 c0 -18 -10 -21 -44 -15
-28 6 -28 7 -13 23 19 18 57 13 57 -8z m114 0 c4 -10 -3 -14 -29 -14 -24 0
-35 5 -35 14 0 27 54 27 64 0z m-1110 -5 c16 -14 -14 -39 -41 -34 -22 3 -52
30 -53 45 0 9 84 -1 94 -11z m364 5 c42 -29 22 -74 -33 -74 -60 0 -82 60 -31
80 30 13 39 12 64 -6z m-1089 -28 c-7 -16 -19 -26 -28 -24 -20 4 -21 30 -1 35
13 4 13 3 0 -6 -13 -9 -13 -11 1 -11 9 0 19 10 22 22 4 12 9 20 12 16 3 -3 0
-17 -6 -32z m-139 14 c0 -5 -2 -10 -4 -10 -3 0 -8 5 -11 10 -3 6 -1 10 4 10 6
0 11 -4 11 -10z m159 -39 c-7 -23 -16 -41 -20 -41 -4 0 -1 20 9 45 20 55 28
52 11 -4z m432 23 c10 -12 8 -13 -5 -8 -14 6 -17 2 -14 -17 2 -13 9 -23 17
-21 7 1 11 -4 9 -13 -2 -9 -7 -15 -12 -15 -5 1 -12 -3 -16 -9 -12 -20 -50 23
-50 56 0 16 2 32 5 35 11 11 55 5 66 -8z m156 3 c2 -3 5 -41 4 -54 0 -7 -8
-13 -17 -13 -11 0 -14 8 -12 27 2 15 -2 28 -10 30 -7 3 -10 -1 -6 -11 4 -10 0
-18 -10 -22 -24 -9 -28 -1 -13 30 10 22 17 25 37 20 14 -3 26 -6 27 -7z m893
-2 c0 -7 -9 -20 -20 -30 -19 -17 -22 -17 -37 -3 -23 24 -10 47 26 46 17 -1 31
-6 31 -13z m65 5 c10 -17 -24 -45 -38 -31 -8 8 -8 11 2 11 8 0 11 6 7 15 -6
17 19 21 29 5z m-650 -40 c15 -34 23 -40 49 -40 52 0 60 -13 26 -45 -26 -25
-29 -32 -23 -71 6 -49 -2 -54 -46 -28 -25 15 -30 15 -59 0 -49 -25 -55 -22
-48 27 6 39 4 46 -24 72 -34 32 -27 45 26 45 26 0 34 6 49 40 10 22 21 40 25
40 4 0 15 -18 25 -40z m749 20 c4 -5 4 -14 0 -22 -5 -7 -9 -16 -9 -20 0 -3 -3
-9 -7 -12 -5 -3 -6 -3 -3 0 2 4 -3 13 -11 21 -8 9 -13 21 -10 29 3 7 0 15 -7
18 -7 3 -1 3 13 0 14 -4 29 -10 34 -14z m-1144 -4 c0 -8 -4 -17 -9 -20 -10 -7
-23 19 -14 28 11 11 23 6 23 -8z m1180 4 c0 -5 -4 -10 -10 -10 -5 0 -10 5 -10
10 0 6 5 10 10 10 6 0 10 -4 10 -10z m110 -2 c0 -9 -16 -13 -45 -13 -29 0 -45
4 -45 13 0 8 16 12 45 12 29 0 45 -4 45 -12z m-190 -39 c0 -11 -4 -19 -10 -19
-13 0 -32 38 -25 51 10 14 35 -9 35 -32z m-1643 5 c-7 -7 -37 7 -37 17 0 6 9
5 21 -1 11 -7 19 -14 16 -16z m774 0 c6 -18 4 -21 -18 -18 -31 3 -37 9 -29 29
8 22 37 15 47 -11z m-681 5 c12 -9 13 -12 1 -16 -11 -5 -11 -7 0 -14 12 -8 11
-11 -1 -19 -22 -14 -33 -12 -26 6 4 12 2 15 -9 10 -18 -6 -19 -2 -5 25 12 22
19 23 40 8z m1281 -5 c17 -21 0 -49 -31 -49 -31 0 -48 28 -31 49 8 9 21 16 31
16 10 0 23 -7 31 -16z m-841 -37 c0 -4 5 -5 12 -1 8 5 9 2 5 -9 -5 -14 0 -17
33 -17 22 0 40 -4 40 -10 0 -5 -5 -10 -11 -10 -5 0 -7 -4 -4 -10 8 -13 -8 -13
-21 0 -8 8 -15 6 -24 -5 -17 -21 3 -46 22 -27 17 17 29 15 22 -3 -4 -8 -1 -15
5 -15 6 0 11 -4 11 -10 0 -5 -20 -10 -44 -10 -25 0 -48 5 -51 10 -3 6 0 10 7
10 8 0 13 12 13 30 0 19 -5 30 -14 30 -8 0 -11 6 -7 16 4 11 1 14 -12 10 -16
-5 -17 -1 -14 31 4 34 6 35 18 18 8 -10 14 -23 14 -28z m178 18 c16 -34 17
-31 -18 -44 -28 -9 -32 -8 -40 15 -14 35 -13 42 8 47 33 9 39 7 50 -18z m752
4 c0 -10 5 -21 10 -24 16 -10 12 -22 -11 -28 -26 -7 -22 -40 6 -45 42 -7 47
-11 33 -25 -12 -14 -48 -12 -48 3 0 15 -47 60 -63 60 -19 0 -23 15 -7 25 6 3
10 16 10 28 0 18 6 22 35 23 27 0 35 -4 35 -17z m267 -1 c-3 -8 -6 -5 -6 6 -1
11 2 17 5 13 3 -3 4 -12 1 -19z m93 7 c0 -10 -11 -15 -35 -15 -24 0 -35 5 -35
15 0 10 11 15 35 15 24 0 35 -5 35 -15z m-1225 -13 c14 -1 19 -22 5 -22 -18 0
-50 20 -50 31 0 6 6 6 18 0 9 -5 21 -9 27 -9z m523 -20 c-2 -24 -6 -28 -25
-24 -12 2 -28 10 -34 18 -9 11 -7 14 14 14 14 0 29 5 32 10 11 17 15 11 13
-18z m167 8 c18 -20 18 -20 -5 -18 -29 4 -37 -19 -16 -47 13 -17 18 -18 35 -7
18 10 21 10 21 -5 0 -23 -11 -37 -30 -41 -8 -2 -16 -8 -18 -13 -7 -18 -30 -8
-60 25 -25 29 -28 39 -23 72 5 29 11 38 23 36 9 -1 19 2 23 8 10 16 30 12 50
-10z m465 -35 c0 -15 -27 -28 -41 -19 -13 8 -11 42 4 47 15 5 37 -11 37 -28z
m-1314 -26 c-12 -40 -16 -44 -39 -36 -8 2 -7 15 7 45 25 55 49 48 32 -9z
m1219 41 c-3 -5 -15 -10 -26 -10 -11 0 -17 5 -14 10 3 6 15 10 26 10 11 0 17
-4 14 -10z m-1168 -28 c20 -13 0 -68 -23 -64 -27 5 -28 8 -14 42 13 32 18 34
37 22z m677 -18 c19 -18 20 -38 6 -65 -13 -23 -55 -25 -64 -3 -23 59 19 108
58 68z m414 4 c9 -9 8 -16 -4 -29 -19 -21 -54 -14 -54 11 0 28 37 39 58 18z
m-1208 -5 c0 -5 -4 -15 -10 -23 -11 -18 -25 -7 -17 15 6 15 27 21 27 8z m1018
-26 c15 4 15 3 2 -6 -22 -15 -30 -14 -29 7 0 9 3 12 5 5 3 -7 13 -9 22 -6z
m-580 -14 c12 -24 4 -43 -18 -43 -20 0 -36 33 -25 50 10 16 33 12 43 -7z m542
2 c0 -8 -2 -15 -4 -15 -2 0 -6 7 -10 15 -3 8 -1 15 4 15 6 0 10 -7 10 -15z"/>
<path d="M2880 4690 c0 -5 4 -10 9 -10 6 0 13 5 16 10 3 6 -1 10 -9 10 -9 0
-16 -4 -16 -10z"/>
<path d="M3112 4649 c2 -6 8 -10 13 -10 5 0 11 4 13 10 2 6 -4 11 -13 11 -9 0
-15 -5 -13 -11z"/>
<path d="M3125 4580 c-4 -6 -3 -16 3 -22 6 -6 12 -6 17 2 4 6 3 16 -3 22 -6 6
-12 6 -17 -2z"/>
<path d="M3232 4594 c-7 -8 -8 -14 -3 -14 10 0 25 19 20 25 -2 1 -10 -3 -17
-11z"/>
<path d="M2469 4603 c-13 -16 -12 -17 4 -4 9 7 17 15 17 17 0 8 -8 3 -21 -13z"/>
<path d="M2471 4553 c0 -10 3 -13 6 -5 2 6 9 12 14 12 6 0 7 -4 4 -10 -3 -5
-1 -10 5 -10 18 0 6 25 -13 28 -11 2 -17 -3 -16 -15z"/>
<path d="M2195 4520 c-3 -5 -1 -10 4 -10 6 0 11 5 11 10 0 6 -2 10 -4 10 -3 0
-8 -4 -11 -10z"/>
<path d="M1446 4374 c-11 -8 -16 -14 -10 -14 13 0 39 18 34 24 -3 2 -14 -2
-24 -10z"/>
<path d="M1377 4369 c7 -7 15 -10 18 -7 3 3 -2 9 -12 12 -14 6 -15 5 -6 -5z"/>
<path d="M1524 4336 c-3 -8 -4 -27 -2 -43 3 -23 5 -20 9 15 5 43 2 53 -7 28z"/>
<path d="M1388 4299 c-33 -19 -16 -80 22 -78 9 0 6 4 -7 9 -34 14 -31 58 4 66
19 5 30 2 40 -11 7 -11 13 -14 13 -9 0 29 -40 42 -72 23z"/>
<path d="M1442 4234 c-7 -8 -8 -14 -3 -14 10 0 25 19 20 25 -2 1 -10 -3 -17
-11z"/>
<path d="M3632 4230 c0 -14 2 -19 5 -12 2 6 2 18 0 25 -3 6 -5 1 -5 -13z"/>
<path d="M3682 4230 c0 -14 2 -19 5 -12 2 6 2 18 0 25 -3 6 -5 1 -5 -13z"/>
<path d="M1632 4199 c2 -6 8 -10 13 -10 5 0 11 4 13 10 2 6 -4 11 -13 11 -9 0
-15 -5 -13 -11z"/>
<path d="M1050 4110 c0 -5 5 -10 10 -10 6 0 10 5 10 10 0 6 -4 10 -10 10 -5 0
-10 -4 -10 -10z"/>
<path d="M1222 4030 c0 -14 2 -19 5 -12 2 6 2 18 0 25 -3 6 -5 1 -5 -13z"/>
<path d="M1262 4030 c0 -14 2 -19 5 -12 2 6 2 18 0 25 -3 6 -5 1 -5 -13z"/>
<path d="M972 3840 c0 -19 2 -27 5 -17 2 9 2 25 0 35 -3 9 -5 1 -5 -18z"/>
<path d="M993 3710 c0 -30 2 -43 4 -27 2 15 2 39 0 55 -2 15 -4 2 -4 -28z"/>
<path d="M4359 3714 c-23 -24 -26 -32 -11 -23 12 8 22 17 22 21 0 5 7 8 15 8
8 0 15 7 15 15 0 21 -1 20 -41 -21z"/>
<path d="M1300 3680 c0 -5 5 -10 10 -10 6 0 10 5 10 10 0 6 -4 10 -10 10 -5 0
-10 -4 -10 -10z"/>
<path d="M3733 3677 c-26 -12 -40 -44 -25 -59 15 -15 62 17 62 42 0 25 -10 30
-37 17z"/>
<path d="M710 3474 c0 -17 6 -24 20 -24 13 0 20 7 20 19 0 10 -9 21 -20 24
-16 4 -20 0 -20 -19z"/>
<path d="M4430 3405 c0 -8 5 -15 10 -15 6 0 10 7 10 15 0 8 -4 15 -10 15 -5 0
-10 -7 -10 -15z"/>
<path d="M3750 3451 c0 -6 4 -13 10 -16 6 -3 7 1 4 9 -7 18 -14 21 -14 7z"/>
<path d="M1151 3274 c0 -11 3 -14 6 -6 3 7 2 16 -1 19 -3 4 -6 -2 -5 -13z"/>
<path d="M1201 3274 c0 -11 3 -14 6 -6 3 7 2 16 -1 19 -3 4 -6 -2 -5 -13z"/>
<path d="M4567 3344 c-8 -8 1 -24 13 -24 4 0 10 7 14 15 5 15 -14 21 -27 9z"/>
<path d="M1114 3075 c11 -8 29 -15 40 -15 21 1 21 1 2 15 -11 8 -29 15 -40 15
-21 -1 -21 -1 -2 -15z"/>
<path d="M1136 2978 c-33 -47 -5 -139 37 -122 19 7 47 53 47 78 0 59 -54 87
-84 44z"/>
<path d="M1070 2800 c-12 -8 -12 -10 3 -16 9 -3 29 -3 44 1 21 5 24 8 12 16
-18 11 -40 11 -59 -1z"/>
<path d="M4700 2920 c0 -5 5 -10 10 -10 6 0 10 5 10 10 0 6 -4 10 -10 10 -5 0
-10 -4 -10 -10z"/>
<path d="M1570 2630 c0 -5 5 -10 10 -10 6 0 10 5 10 10 0 6 -4 10 -10 10 -5 0
-10 -4 -10 -10z"/>
<path d="M4235 2551 c-7 -12 12 -24 25 -16 11 7 4 25 -10 25 -5 0 -11 -4 -15
-9z"/>
<path d="M3611 2414 c0 -11 3 -14 6 -6 3 7 2 16 -1 19 -3 4 -6 -2 -5 -13z"/>
<path d="M3612 2341 c4 -13 18 -16 19 -4 0 4 -5 9 -11 12 -7 2 -11 -2 -8 -8z"/>
<path d="M1500 2395 c0 -9 5 -15 11 -13 6 2 11 8 11 13 0 5 -5 11 -11 13 -6 2
-11 -4 -11 -13z"/>
<path d="M1996 2393 c-4 -9 -4 -18 -2 -21 8 -7 36 6 36 17 0 16 -28 20 -34 4z"/>
<path d="M3540 2265 c0 -8 7 -15 15 -15 8 0 15 7 15 15 0 8 -7 15 -15 15 -8 0
-15 -7 -15 -15z"/>
<path d="M1920 2154 c0 -17 22 -14 28 4 2 7 -3 12 -12 12 -9 0 -16 -7 -16 -16z"/>
<path d="M1927 2093 c-12 -11 -8 -23 8 -23 8 0 15 7 15 15 0 16 -12 20 -23 8z"/>
<path d="M3640 2168 c-19 -11 -25 -21 -25 -48 0 -45 31 -62 99 -57 36 3 55 11
68 27 10 12 18 26 18 30 0 4 -8 18 -18 30 -22 28 -104 38 -142 18z"/>
<path d="M3509 2071 c-6 -22 -9 -48 -5 -58 7 -16 9 -16 21 7 16 29 19 76 5 85
-5 3 -14 -12 -21 -34z"/>
<path d="M3867 2104 c-11 -11 -9 -50 4 -78 14 -29 29 -25 29 7 -1 31 -23 80
-33 71z"/>
<path d="M3715 1960 c-3 -5 -1 -10 4 -10 6 0 11 5 11 10 0 6 -2 10 -4 10 -3 0
-8 -4 -11 -10z"/>
<path d="M4442 2141 c4 -13 18 -16 19 -4 0 4 -5 9 -11 12 -7 2 -11 -2 -8 -8z"/>
<path d="M1491 2134 c0 -11 3 -14 6 -6 3 7 2 16 -1 19 -3 4 -6 -2 -5 -13z"/>
<path d="M1541 2134 c0 -11 3 -14 6 -6 3 7 2 16 -1 19 -3 4 -6 -2 -5 -13z"/>
<path d="M657 2084 c-8 -8 1 -24 14 -24 5 0 9 7 9 15 0 15 -12 20 -23 9z"/>
<path d="M1282 1950 c0 -14 2 -19 5 -12 2 6 2 18 0 25 -3 6 -5 1 -5 -13z"/>
<path d="M1322 1950 c0 -14 2 -19 5 -12 2 6 2 18 0 25 -3 6 -5 1 -5 -13z"/>
<path d="M4373 2005 c0 -22 2 -30 4 -17 2 12 2 30 0 40 -3 9 -5 -1 -4 -23z"/>
<path d="M4393 1875 c0 -27 2 -38 4 -22 2 15 2 37 0 50 -2 12 -4 0 -4 -28z"/>
<path d="M2556 1754 c-10 -25 -7 -34 9 -34 8 0 15 2 15 4 0 2 3 11 6 19 3 8
-1 17 -10 20 -8 3 -17 -1 -20 -9z"/>
<path d="M3855 1821 c-7 -12 12 -24 25 -16 11 7 4 25 -10 25 -5 0 -11 -4 -15
-9z"/>
<path d="M4110 1745 c0 -16 6 -25 15 -25 9 0 15 9 15 25 0 16 -6 25 -15 25 -9
0 -15 -9 -15 -25z"/>
<path d="M4180 1730 c0 -22 5 -40 10 -40 6 0 10 18 10 40 0 22 -4 40 -10 40
-5 0 -10 -18 -10 -40z"/>
<path d="M3924 1704 c3 -9 6 -18 6 -20 0 -2 7 -4 15 -4 8 0 15 9 15 20 0 14
-7 20 -21 20 -15 0 -19 -4 -15 -16z"/>
<path d="M1210 1710 c0 -5 5 -10 11 -10 5 0 7 5 4 10 -3 6 -8 10 -11 10 -2 0
-4 -4 -4 -10z"/>
<path d="M2460 1700 c-9 -6 -10 -10 -3 -10 6 0 15 5 18 10 8 12 4 12 -15 0z"/>
<path d="M2447 1664 c-8 -8 1 -24 14 -24 5 0 9 7 9 15 0 15 -12 20 -23 9z"/>
<path d="M1792 1624 c-7 -8 -8 -14 -3 -14 10 0 25 19 20 25 -2 1 -10 -3 -17
-11z"/>
<path d="M1710 1622 c0 -13 47 -28 57 -18 4 3 -3 6 -13 6 -11 0 -25 5 -32 12
-9 9 -12 9 -12 0z"/>
<path d="M1722 1538 c-21 -21 -14 -57 14 -70 28 -13 55 -3 61 23 3 8 0 7 -7
-3 -6 -10 -19 -18 -28 -18 -39 0 -57 50 -24 69 9 6 12 11 7 11 -6 0 -16 -5
-23 -12z"/>
<path d="M1782 1530 c7 -10 14 -18 15 -16 6 6 -9 36 -18 36 -5 0 -4 -9 3 -20z"/>
<path d="M1190 1580 c0 -5 5 -10 10 -10 6 0 10 5 10 10 0 6 -4 10 -10 10 -5 0
-10 -4 -10 -10z"/>
<path d="M4220 1541 c0 -5 5 -13 10 -16 6 -3 10 -2 10 4 0 5 -4 13 -10 16 -5
3 -10 2 -10 -4z"/>
<path d="M1620 1539 c0 -5 5 -7 10 -4 6 3 10 8 10 11 0 2 -4 4 -10 4 -5 0 -10
-5 -10 -11z"/>
<path d="M3467 1444 c-14 -14 -7 -35 11 -32 9 2 17 10 17 17 0 16 -18 25 -28
15z"/>
<path d="M1940 1380 c-9 -6 -10 -10 -3 -10 6 0 15 5 18 10 8 12 4 12 -15 0z"/>
<path d="M1936 1328 c7 -11 34 -10 34 1 0 6 -9 9 -19 8 -11 0 -17 -5 -15 -9z"/>
<path d="M3810 1310 c0 -5 5 -10 11 -10 5 0 7 5 4 10 -3 6 -8 10 -11 10 -2 0
-4 -4 -4 -10z"/>
<path d="M3765 1299 c-4 -5 -4 -13 -1 -16 3 -4 6 0 6 8 0 11 2 11 10 -1 6 -9
10 -10 10 -3 0 17 -17 25 -25 12z"/>
<path d="M3442 1100 c0 -14 2 -19 5 -12 2 6 2 18 0 25 -3 6 -5 1 -5 -13z"/>
<path d="M3401 1094 c0 -11 3 -14 6 -6 3 7 2 16 -1 19 -3 4 -6 -2 -5 -13z"/>
<path d="M1250 1144 c0 -9 7 -14 17 -12 25 5 28 28 4 28 -12 0 -21 -6 -21 -16z"/>
<path d="M1629 1113 c-13 -16 -12 -17 4 -4 16 13 21 21 13 21 -2 0 -10 -8 -17
-17z"/>
<path d="M1670 1075 c-8 -9 -8 -15 -2 -15 12 0 26 19 19 26 -2 2 -10 -2 -17
-11z"/>
<path d="M3867 1034 c-8 -8 1 -24 14 -24 5 0 9 7 9 15 0 15 -12 20 -23 9z"/>
<path d="M2920 920 c0 -5 5 -10 11 -10 5 0 7 5 4 10 -3 6 -8 10 -11 10 -2 0
-4 -4 -4 -10z"/>
<path d="M1535 920 c-3 -5 -1 -10 4 -10 6 0 11 5 11 10 0 6 -2 10 -4 10 -3 0
-8 -4 -11 -10z"/>
<path d="M1933 773 c-21 -8 -16 -43 6 -43 24 0 33 13 25 34 -6 17 -11 18 -31
9z"/>
<path d="M2068 743 c7 -3 16 -2 19 1 4 3 -2 6 -13 5 -11 0 -14 -3 -6 -6z"/>
<path d="M2220 745 c0 -8 5 -15 10 -15 6 0 10 7 10 15 0 8 -4 15 -10 15 -5 0
-10 -7 -10 -15z"/>
<path d="M1804 536 c-12 -50 27 -65 44 -17 8 24 7 31 -5 35 -25 10 -32 7 -39
-18z"/>
<path d="M2490 481 c0 -12 5 -21 10 -21 6 0 10 6 10 14 0 8 -4 18 -10 21 -5 3
-10 -3 -10 -14z"/>
<path d="M2542 480 c0 -14 2 -19 5 -12 2 6 2 18 0 25 -3 6 -5 1 -5 -13z"/>
</g>
</svg>
